<svg width="157" height="158" viewBox="0 0 157 158" fill="none" xmlns="http://www.w3.org/2000/svg">
<path d="M105.384 18.6919C102.59 17.0964 98.1139 19.0084 95.3307 19.8391C90.3251 21.3423 85.2878 22.8718 80.6104 25.5617C76.8959 27.711 72.3136 31.0338 70.1442 35.5566C68.5357 38.8926 69.1918 43.9692 70.0595 47.5953C75.9752 45.2878 82.3459 44.5625 88.0922 45.235C88.1875 45.2482 88.2933 45.2614 88.3885 45.2746C88.1346 42.1231 89.0764 38.2333 90.1558 36.3873C90.8225 35.2533 91.7009 34.3435 92.5792 33.4468C95.5106 30.4273 98.4631 27.3945 101.68 24.8497C102.675 24.0717 108.749 20.6038 105.384 18.6919ZM61.4982 94.1941C61.784 94.6952 62.1014 95.1699 62.5248 95.4863C58.5245 94.5369 57.7732 96.8313 56.6514 101.222C55.4662 105.811 54.609 110.505 53.7518 115.199C53.2121 118.206 52.9052 121.225 54.4926 123.836C55.0535 124.759 55.9001 125.471 56.8313 125.51C57.7626 125.55 58.641 124.904 59.2653 124.06C60.1754 122.821 60.7046 121.146 61.4136 119.722C63.5724 115.437 65.2021 110.821 66.98 106.286C68.197 103.16 69.795 100.286 70.9379 97.1477C71.0966 96.7126 71.2554 96.3038 71.4247 95.9214C68.0489 95.8951 64.6942 95.3413 61.4982 94.1941ZM105.384 18.6919C102.59 17.0964 98.1139 19.0084 95.3307 19.8391C90.3251 21.3423 85.2878 22.8718 80.6104 25.5617C76.8959 27.711 72.3136 31.0338 70.1442 35.5566C68.5357 38.8926 69.1918 43.9692 70.0595 47.5953C75.9752 45.2878 82.3459 44.5625 88.0922 45.235C88.1875 45.2482 88.2933 45.2614 88.3885 45.2746C88.1346 42.1231 89.0764 38.2333 90.1558 36.3873C90.8225 35.2533 91.7009 34.3435 92.5792 33.4468C95.5106 30.4273 98.4631 27.3945 101.68 24.8497C102.675 24.0717 108.749 20.6038 105.384 18.6919ZM61.4982 94.1941C61.784 94.6952 62.1014 95.1699 62.5248 95.4863C58.5245 94.5369 57.7732 96.8313 56.6514 101.222C55.4662 105.811 54.609 110.505 53.7518 115.199C53.2121 118.206 52.9052 121.225 54.4926 123.836C55.0535 124.759 55.9001 125.471 56.8313 125.51C57.7626 125.55 58.641 124.904 59.2653 124.06C60.1754 122.821 60.7046 121.146 61.4136 119.722C63.5724 115.437 65.2021 110.821 66.98 106.286C68.197 103.16 69.795 100.286 70.9379 97.1477C71.0966 96.7126 71.2554 96.3038 71.4247 95.9214C68.0489 95.8951 64.6942 95.3413 61.4982 94.1941ZM155.482 57.01C154.096 50.7203 151.979 44.668 149.291 39.0245C144.995 29.9922 139.206 22.0147 132.497 15.7778C117.85 2.16999 96.7276 -1.25832 78.9595 0.376727C60.1437 2.11726 41.9205 10.3453 26.089 23.0169C16.6282 30.5987 9.8659 41.2265 5.60113 53.3839C1.39985 65.3566 -0.377997 78.8062 0.066471 92.2426C0.521521 105.758 5.54823 117.81 12.8184 127.567C19.1468 136.086 27.2001 142.85 35.4334 147.32C36.7139 148.019 38.005 148.678 39.3172 149.311C73.1814 165.569 116.729 160.137 140.825 123.427C152.392 105.798 160.509 79.8479 155.482 57.01ZM48.8627 73.9802C49.3812 70.0376 50.7781 66.0555 52.7147 62.5085C55.7837 56.8913 60.2389 52.7114 65.2974 49.85C66.8318 48.9666 68.4298 48.215 70.0595 47.5953C75.9752 45.2878 82.3459 44.5625 88.0922 45.235C88.1875 45.2482 88.2933 45.2614 88.3885 45.2746C89.7431 45.446 91.1083 45.7756 92.4311 46.2635C97.1509 47.9381 101.458 51.4851 103.702 56.7331C103.934 57.2605 104.146 57.8011 104.326 58.3681C104.538 59.0142 104.717 59.6603 104.866 60.3196C105.363 62.5085 105.511 64.6973 105.363 66.8466C104.77 75.5625 99.3944 83.6454 93.5634 88.2209C89.0341 91.7811 83.7216 94.1941 78.2293 95.2753C75.9752 95.7237 73.6894 95.9478 71.4247 95.9214C68.0489 95.8951 64.6942 95.3413 61.4982 94.1941C59.7627 93.6007 58.0695 92.8096 56.4504 91.847C56.2493 91.7283 56.0482 91.5965 55.8472 91.4646C53.9846 90.2647 52.5242 88.8011 51.4237 87.166C49.9209 84.9508 49.0849 82.406 48.778 79.716C48.5664 77.8568 48.6087 75.9185 48.8627 73.9802ZM61.4982 94.1941C61.784 94.6952 62.1014 95.1699 62.5248 95.4863C58.5245 94.5369 57.7732 96.8313 56.6514 101.222C55.4662 105.811 54.609 110.505 53.7518 115.199C53.2121 118.206 52.9052 121.225 54.4926 123.836C55.0535 124.759 55.9001 125.471 56.8313 125.51C57.7626 125.55 58.641 124.904 59.2653 124.06C60.1754 122.821 60.7046 121.146 61.4136 119.722C63.5724 115.437 65.2021 110.821 66.98 106.286C68.197 103.16 69.795 100.286 70.9379 97.1477C71.0966 96.7126 71.2554 96.3038 71.4247 95.9214C68.0489 95.8951 64.6942 95.3413 61.4982 94.1941ZM105.384 18.6919C102.59 17.0964 98.1139 19.0084 95.3307 19.8391C90.3251 21.3423 85.2878 22.8718 80.6104 25.5617C76.8959 27.711 72.3136 31.0338 70.1442 35.5566C68.5357 38.8926 69.1918 43.9692 70.0595 47.5953C75.9752 45.2878 82.3459 44.5625 88.0922 45.235C88.1875 45.2482 88.2933 45.2614 88.3885 45.2746C88.1346 42.1231 89.0764 38.2333 90.1558 36.3873C90.8225 35.2533 91.7009 34.3435 92.5792 33.4468C95.5106 30.4273 98.4631 27.3945 101.68 24.8497C102.675 24.0717 108.749 20.6038 105.384 18.6919ZM61.4982 94.1941C61.784 94.6952 62.1014 95.1699 62.5248 95.4863C58.5245 94.5369 57.7732 96.8313 56.6514 101.222C55.4662 105.811 54.609 110.505 53.7518 115.199C53.2121 118.206 52.9052 121.225 54.4926 123.836C55.0535 124.759 55.9001 125.471 56.8313 125.51C57.7626 125.55 58.641 124.904 59.2653 124.06C60.1754 122.821 60.7046 121.146 61.4136 119.722C63.5724 115.437 65.2021 110.821 66.98 106.286C68.197 103.16 69.795 100.286 70.9379 97.1477C71.0966 96.7126 71.2554 96.3038 71.4247 95.9214C68.0489 95.8951 64.6942 95.3413 61.4982 94.1941ZM105.384 18.6919C102.59 17.0964 98.1139 19.0084 95.3307 19.8391C90.3251 21.3423 85.2878 22.8718 80.6104 25.5617C76.8959 27.711 72.3136 31.0338 70.1442 35.5566C68.5357 38.8926 69.1918 43.9692 70.0595 47.5953C75.9752 45.2878 82.3459 44.5625 88.0922 45.235C88.1875 45.2482 88.2933 45.2614 88.3885 45.2746C88.1346 42.1231 89.0764 38.2333 90.1558 36.3873C90.8225 35.2533 91.7009 34.3435 92.5792 33.4468C95.5106 30.4273 98.4631 27.3945 101.68 24.8497C102.675 24.0717 108.749 20.6038 105.384 18.6919Z" fill="url(#paint0_linear_1_13942)"/>
<path d="M69.9962 11.7562C66.8214 19.048 61.1492 23.0696 56.186 28.2649C50.8418 33.8688 46.0055 40.2508 41.8678 47.2525C37.5606 54.5443 33.952 62.5085 31.2111 70.8948C29.9412 74.7846 28.6819 78.7139 27.7929 82.7752C27.3696 84.6608 24.9991 92.1372 28.4279 91.4119C29.3591 91.201 30.0999 90.3439 30.7137 89.4604C31.8249 87.8254 32.862 86.1771 33.9731 84.5421C36.4495 80.8896 38.894 75.9713 41.9207 73.044C44.3864 70.6574 47.0744 71.4881 48.8628 73.9802C48.6088 75.9186 48.5665 77.8569 48.7782 79.7161C47.1696 79.7029 44.8626 78.9908 43.5927 79.6765C41.9312 80.5995 40.6401 82.2741 39.3914 83.9223C37.0315 87.0342 34.661 90.1329 32.3011 93.2448C30.9148 95.0644 28.3856 99.93 26.0468 99.8245C22.0889 99.6399 23.0943 87.4034 23.4647 84.1993C24.9039 71.765 30.1317 60.1878 35.4759 49.7446C39.275 42.321 43.7514 35.3984 48.7993 29.2538C52.6196 24.6124 59.6465 20.6434 62.2074 15.0262C60.0592 16.1734 57.7839 16.925 55.6674 18.1249C53.0217 19.6149 50.4608 21.3423 47.8786 23.0301C40.9682 27.5264 34.4599 35.0556 29.8353 42.8353C28.121 45.7098 26.4595 48.7161 24.9885 51.8016C24.3959 53.0411 22.6075 59.1857 21.4434 55.0849C20.819 52.896 23.1366 47.8854 23.9303 46.0262C25.2319 43.033 26.8828 40.264 28.6713 37.6927C31.9836 32.8931 35.8568 28.7132 39.8359 24.7838C48.2279 16.5295 57.1913 9.05306 68.0384 7.49713C69.848 7.2466 70.737 10.0552 69.9962 11.7562Z" fill="#470927"/>
<path d="M110.908 20.749C109.501 24.6916 104.844 27.3024 102.04 29.2802C99.1192 31.3372 95.6693 34.0139 93.9549 37.7587C93.1295 39.552 92.0077 43.7451 92.431 46.2636C91.1082 45.7757 89.743 45.4461 88.3885 45.2746C88.1345 42.1232 89.0763 38.2334 90.1557 36.3874C90.8224 35.2534 91.7008 34.3436 92.5791 33.4469C95.5105 30.4274 98.4631 27.3946 101.68 24.8498C102.675 24.0718 108.749 20.6039 105.384 18.6919C102.59 17.0965 98.1138 19.0084 95.3306 19.8392C90.3251 21.3423 85.2878 22.8719 80.6103 25.5618C76.8958 27.7111 72.3135 31.0339 70.1441 35.5567C68.5356 38.8927 69.1917 43.9693 70.0594 47.5954C68.4297 48.2151 66.8318 48.9667 65.2973 49.8501C62.0908 42.0441 66.7894 32.3261 71.9008 27.7243C79.2345 21.105 89.5102 16.6877 98.3466 14.6966C101.638 13.945 114.189 11.5716 110.908 20.749Z" fill="#470927"/>
<path d="M146.021 70.1828C143.862 72.108 141.28 72.7804 138.962 74.3759C136.55 76.0242 134.37 78.1734 132.306 80.4282C128.263 84.8455 124.665 89.8166 120.961 94.669C116.76 100.167 112.707 106.009 108.273 111.217C105.458 114.527 102.336 116.979 98.3995 117.059C97.3095 117.085 96.1771 115.819 96.2618 114.408C97.6904 91.4912 110.474 73.176 121.258 55.8234C124.528 50.5623 128.02 45.4857 130.549 39.6048C132.232 35.6886 135.513 27.131 129.015 31.5878C124.168 34.9107 120.083 39.6312 115.744 43.8507C113.109 46.4219 110.411 49.0986 108.495 52.5665C107.543 54.2939 106.802 56.2058 106.432 58.2496C106.029 60.4516 106.241 62.7724 105.236 64.7634C105.405 63.2207 105.204 61.8098 104.876 60.3198C104.728 59.6605 104.548 59.0144 104.336 58.3683C104.156 57.8013 103.945 57.2607 103.712 56.7332C104.474 53.7137 105.712 50.8787 107.352 48.4657C111.099 42.8881 115.236 37.1523 120.041 33.0647C123.607 30.0451 129.428 23.5708 134.01 24.0983C142.74 25.1004 134.327 42.1497 132.052 46.0395C126.359 55.7575 120.051 64.8953 114.411 74.6528C108.77 84.4235 103.765 94.9327 101.077 106.497C100.474 109.094 100.749 111.679 103.109 110.822C104.865 110.189 106.654 107.67 107.913 106.114C110.665 102.712 112.876 98.7434 115.511 95.2096C119.184 90.2649 122.909 85.3861 126.486 80.3359C131.089 73.8221 137.724 63.6822 145.492 65.1063C147.587 65.4887 147.376 68.9829 146.021 70.1828Z" fill="#470927"/>
<path d="M78.8323 96.2248C76.8746 96.884 75.0967 98.3609 73.848 100.352C73.1389 101.499 72.5992 102.778 72.0701 104.057C69.9536 109.16 68.0699 114.474 65.7946 119.445C63.8051 123.783 60.1435 132.288 55.2121 131.523C49.8255 130.706 49.4869 121.766 50.2065 116.61C51.0425 110.571 51.6881 104.4 53.3919 98.6114C53.8469 97.0555 54.7358 93.4425 55.847 91.4646C56.1327 90.9372 56.4291 90.5285 56.7465 90.3043C57.9106 89.4604 59.0959 90.5417 59.9001 91.5833C60.1753 91.9394 61.4452 94.9721 61.9531 94.6688C60.715 95.3941 59.2863 95.249 58.3233 96.594C57.4238 97.8466 57.0534 99.6663 56.6513 101.222C55.4661 105.811 54.6088 110.505 53.7517 115.199C53.2119 118.206 52.9051 121.225 54.4925 123.836C55.0533 124.759 55.8999 125.471 56.8312 125.511C57.7625 125.55 58.6408 124.904 59.2652 124.06C60.1753 122.821 60.7044 121.146 61.4135 119.722C63.5723 115.437 65.202 110.821 66.9799 106.286C68.1969 103.161 69.7948 100.286 70.9378 97.1477C71.0965 96.7126 71.2552 96.3039 71.4246 95.9215C71.9114 94.7875 72.4934 93.9436 73.5411 93.6008C73.9115 93.4689 74.3347 93.403 74.8427 93.403C76.1126 93.4161 77.3614 94.115 78.2291 95.2754C78.462 95.5655 78.663 95.8819 78.8323 96.2248Z" fill="#470927"/>
<path d="M49.7517 76.4195C49.6882 76.0503 49.5612 75.6284 49.3813 75.1405C47.8362 70.9474 44.3122 68.7454 41.1586 71.7913C38.1426 74.7054 35.6874 79.6369 33.2111 83.2894C32.0999 84.9244 31.0735 86.5726 29.9517 88.1945C29.3379 89.0911 28.5971 89.9482 27.6659 90.146C24.2371 90.8844 26.6076 83.408 27.0309 81.5093C27.9304 77.448 29.1898 73.5186 30.4597 69.6288C33.19 61.2426 36.8092 53.2784 41.1163 45.9998C45.2541 38.9849 50.0903 32.6161 55.4345 27.0121C60.3977 21.8169 66.0594 17.7952 69.2448 10.5034C69.9855 8.80245 69.086 5.9807 67.287 6.24442C56.4399 7.80035 47.4764 15.2767 39.0845 23.5311C35.1054 27.4473 31.2428 31.6404 27.9198 36.4268C26.1314 39.0113 24.4805 41.7671 23.1894 44.7735C22.3852 46.6327 20.0782 51.6433 20.692 53.819C21.856 57.9198 23.6445 51.7752 24.2371 50.5357C25.7081 47.4502 27.3695 44.4438 29.0839 41.5693C33.7085 33.8028 40.2168 26.2737 47.1272 21.7642C49.6988 20.0896 52.2597 18.3622 54.916 16.859C57.0431 15.6591 59.3077 14.9075 61.456 13.7603C58.895 19.3775 51.8682 23.3465 48.0585 27.9879C43.0106 34.1325 38.5341 41.0683 34.735 48.4787C29.3908 58.9351 24.163 70.4991 22.7238 82.9333C22.3534 86.1375 21.3481 98.374 25.3059 98.5454C27.6447 98.6509 30.1739 93.7853 31.5602 91.9657C33.9202 88.8538 36.2801 85.7551 38.6506 82.6432C39.8993 80.995 41.1904 79.3204 42.8518 78.3974C45.053 77.2107 50.4819 80.3226 49.7517 76.4195Z" fill="url(#paint1_linear_1_13942)"/>
<path d="M101.278 28.0143C104.083 26.0364 108.739 23.4388 110.146 19.4963C113.427 10.3189 100.876 12.6924 97.5849 13.444C88.7485 15.435 78.4834 19.8523 71.1391 26.4716C65.9113 31.1789 61.1068 41.2529 64.7684 49.1644C66.1759 52.2236 70.2502 50.2061 69.393 46.7383C68.4935 43.0858 67.7315 37.7719 69.393 34.3172C71.5624 29.7944 76.1447 26.4716 79.8592 24.3223C84.5366 21.6192 89.574 20.1028 94.5795 18.5996C97.3521 17.7689 101.839 15.857 104.622 17.4393C107.988 19.3512 101.924 22.8191 100.918 23.5971C97.6908 26.1287 94.7488 29.1747 91.8069 32.1943C90.9391 33.0909 90.0502 34.0007 89.3835 35.1347C87.3834 38.5366 85.8806 48.8084 91.4047 48.7952C91.7328 48.7952 92.0926 48.7161 92.3254 48.4128C92.791 47.7931 92.3995 46.8042 92.0079 46.1053C90.8544 43.9824 92.2196 38.6026 93.1826 36.4928C94.9076 32.748 98.3575 30.0713 101.278 28.0143Z" fill="url(#paint2_linear_1_13942)"/>
<path d="M144.731 63.8404C136.963 62.4295 130.317 72.5562 125.714 79.07C122.148 84.1202 118.412 88.999 114.74 93.9437C112.115 97.4775 109.893 101.46 107.142 104.862C105.893 106.404 104.094 108.936 102.337 109.569C99.9771 110.426 99.702 107.828 100.316 105.231C103.004 93.68 108.009 83.1577 113.65 73.4001C119.29 63.6426 125.598 54.5048 131.291 44.7868C133.566 40.897 141.979 23.8477 133.249 22.8456C128.666 22.3181 122.846 28.7924 119.28 31.8119C114.465 35.8995 110.337 41.6354 106.591 47.1998C104.887 49.7315 103.607 52.6852 102.856 55.8498C102.422 57.6694 102.157 59.6077 102.443 61.4669C102.729 63.3261 103.649 65.1194 105.046 65.8842C105.766 63.5635 105.226 60.9395 105.469 58.4737C106.179 51.3666 110.793 46.6856 114.994 42.598C119.322 38.3785 123.418 33.658 128.264 30.3351C134.762 25.8783 131.481 34.4359 129.799 38.3521C127.27 44.233 123.777 49.3096 120.507 54.5707C109.724 71.9233 96.94 90.2385 95.5113 113.155C95.4266 114.566 96.559 115.832 97.649 115.819C101.586 115.727 104.708 113.287 107.533 109.978C111.967 104.769 116.01 98.928 120.222 93.4295C123.925 88.5902 127.524 83.606 131.566 79.1887C133.63 76.9339 135.81 74.7846 138.223 73.1364C140.551 71.5409 143.122 70.8685 145.281 68.9565C146.615 67.717 146.826 64.2228 144.731 63.8404Z" fill="url(#paint3_linear_1_13942)"/>
<path d="M72.779 92.3352C71.3927 92.8099 70.8213 94.1153 70.1757 95.8822C69.0328 99.0336 67.4348 101.895 66.2178 105.02C64.4399 109.556 62.8102 114.184 60.662 118.47C59.9529 119.894 59.4132 121.555 58.5031 122.795C57.8788 123.652 57.0004 124.285 56.0691 124.245C55.1379 124.205 54.2913 123.493 53.7304 122.57C52.143 119.946 52.4393 116.927 52.9896 113.934C53.8468 109.239 54.704 104.545 55.8787 99.9566C57.011 95.5657 57.7518 93.2714 61.752 94.2076C61.0853 93.7065 60.6725 92.8362 60.2281 92.0451C59.2545 90.2914 57.6036 87.8388 55.9633 89.0255C54.4606 90.12 53.1907 95.3679 52.6087 97.3326C50.9049 103.121 50.2699 109.279 49.4233 115.331C48.7037 120.487 49.0423 129.427 54.4289 130.245C59.3603 130.996 63.0219 122.491 65.0114 118.153C67.2867 113.182 69.1704 107.868 71.2869 102.778C71.816 101.499 72.3557 100.207 73.0647 99.0732C74.3135 97.0821 76.0914 95.6053 78.0491 94.9328C77.2237 93.2318 75.6575 92.1242 74.0595 92.1242C73.5833 92.1506 73.1494 92.2165 72.779 92.3352Z" fill="url(#paint4_linear_1_13942)"/>
<path d="M104.865 60.3196C104.717 59.6603 104.537 59.0142 104.326 58.3681C101.765 50.5357 94.8544 46.0129 88.0921 45.235C75.5624 43.7713 60.1224 48.9534 52.7146 62.5084C48.4392 70.3277 46.7989 80.3094 51.4235 87.166C51.2648 87.0605 51.1166 86.955 50.9685 86.8495C46.3968 83.5662 43.9205 74.257 44.4708 67.7828C44.8412 63.4842 46.3545 59.4889 48.1958 55.9155C55.7729 41.2133 69.5726 32.5502 82.9701 34.0929C88.8435 34.7654 94.7591 37.4026 99.0874 42.7165C102.738 47.2128 105.067 53.8058 104.865 60.3196Z" fill="#470927"/>
<path d="M26.9782 37.9301C26.3433 38.8003 25.6871 39.7629 25.2533 40.8046C24.904 41.6353 24.6712 42.0704 24.8723 42.967C24.904 43.0989 25.3379 42.7561 25.3696 42.7165C26.5337 41.3188 27.8248 39.5915 27.973 37.4686C27.9941 37.1653 27.0629 37.8114 26.9782 37.9301Z" fill="#FFEFDE"/>
<path d="M59.6778 10.0681C59.0323 9.92304 58.1645 10.3845 57.5824 10.6351C56.4395 11.1361 55.286 11.6372 54.1748 12.2437C54.0902 12.2965 52.6721 13.325 53.0425 13.4041C54.1114 13.6678 55.3919 12.9558 56.376 12.5338C57.4978 12.046 58.81 11.3339 59.6778 10.2922C59.7095 10.2527 59.7942 10.0945 59.6778 10.0681Z" fill="#FFEFDE"/>
<path d="M31.0524 57.0227C30.0894 58.5259 29.4015 59.9764 28.7242 61.7037C28.1104 63.286 27.7929 64.842 27.3696 66.5034C27.3379 66.6352 28.0892 66.2924 28.1845 66.0946C29.5814 63.0619 31.518 60.0027 32.1212 56.5349C32.1635 56.258 31.1476 56.8645 31.0524 57.0227Z" fill="#FFEFDE"/>
<path d="M72.1655 25.6806C71.8692 25.7993 71.5623 25.9838 71.3189 26.2344C70.4406 27.131 69.4247 28.0277 69.0437 29.4122C68.959 29.7023 69.5305 29.4781 69.5728 29.4649C69.9432 29.3199 70.3348 29.0825 70.6417 28.7661C71.1602 28.2255 71.6258 27.6849 72.0703 27.0519C72.229 26.8278 72.3772 26.6168 72.4618 26.3399C72.5148 26.1421 72.5465 25.9179 72.5889 25.7201C72.6312 25.496 72.2184 25.6674 72.1655 25.6806Z" fill="#FFEFDE"/>
<path d="M42.344 71.6726C42.1323 71.7649 41.9313 71.8967 41.7302 72.0286C41.836 71.9363 41.9419 71.844 42.0583 71.7517C41.9842 71.8044 41.9101 71.8439 41.836 71.8967C41.6985 72.0022 41.5609 72.1077 41.4339 72.2395C41.4233 72.2527 41.4127 72.2527 41.4021 72.2659C41.254 72.3846 41.1058 72.5033 41.0106 72.6615C41.0423 72.6351 41.0635 72.6219 41.0952 72.5955C41.0106 72.6878 40.9365 72.7934 40.8624 72.912C40.7566 73.0834 40.619 73.2549 40.545 73.4527C40.4815 73.6109 40.5132 73.7427 40.545 73.901C40.5873 74.1251 41.2011 73.8218 41.2434 73.8087C41.455 73.7164 41.6879 73.5713 41.8995 73.4263C41.9207 73.4131 41.9736 73.3735 42.1006 73.268C42.1323 73.2417 42.1535 73.2153 42.1852 73.1757C42.217 73.1493 42.2487 73.123 42.2805 73.0966C42.2487 73.123 42.2276 73.1362 42.1958 73.1626C42.2699 73.0966 42.3334 73.0307 42.3969 72.9516C42.5239 72.8065 42.672 72.6615 42.7885 72.5033C42.9578 72.2659 43.0424 71.9626 43.1483 71.6726C43.2858 71.2902 42.3863 71.6594 42.344 71.6726Z" fill="#FFEFDE"/>
<path d="M56.1116 91.3856C56.0693 91.0692 54.9158 91.9131 54.8311 92.0449C53.7941 93.5085 53.2861 94.8799 53.4871 96.8314C53.5189 97.0951 54.5877 96.3567 54.6724 96.1721C55.265 94.748 56.3444 93.0734 56.1116 91.3856Z" fill="#FFEFDE"/>
<path d="M70.4615 99.0197C70.197 99.1516 69.7949 99.3625 69.6467 99.6922C69.3186 100.444 68.853 101.209 68.7577 102.066C68.726 102.316 69.5409 101.776 69.615 101.67C70.197 100.839 70.6097 99.9163 71.0542 98.9801C71.1706 98.7428 70.4827 99.0065 70.4615 99.0197Z" fill="#FFEFDE"/>
<path d="M101.162 24.2961C99.9447 25.1268 99.0134 26.2213 98.0927 27.4871C97.9339 27.7113 98.1773 27.6849 98.2938 27.6717C98.5689 27.619 98.897 27.4212 99.1192 27.2102C99.7647 26.6169 100.463 26.0631 101.077 25.4038C101.352 25.1005 101.955 24.5599 101.945 24.0324C101.924 23.8478 101.172 24.2829 101.162 24.2961Z" fill="#FFEFDE"/>
<path d="M116.125 35.7673C116.157 35.7407 116.168 35.7407 116.125 35.7673V35.7673Z" fill="#FFEFDE"/>
<path d="M115.925 35.9389C116.03 35.8466 116.083 35.7939 116.115 35.7675C115.999 35.873 115.649 36.1763 115.628 36.1895C115.396 36.4004 115.163 36.5982 114.93 36.8224C114.464 37.2707 114.02 37.7454 113.607 38.2728C113.321 38.642 112.962 39.0244 112.76 39.4727C112.602 39.8419 112.517 40.2243 112.337 40.5935C112.178 40.91 112.962 40.6463 112.951 40.6595C113.385 40.488 113.84 40.2111 114.189 39.8419C115.004 38.998 115.872 38.2728 116.612 37.3103C117.057 36.7301 117.533 36.1499 117.639 35.3456C117.734 34.7786 116.073 35.8203 115.925 35.9389Z" fill="#FFEFDE"/>
<path d="M102.21 87.7855C101.268 89.5656 100.263 91.7808 100.326 93.996C100.326 94.1806 101.183 93.64 101.257 93.5213C102.294 91.6621 103.279 89.4601 103.321 87.1657C103.332 86.9416 102.294 87.6141 102.21 87.7855Z" fill="#FFEFDE"/>
<path d="M137.914 66.6884C137.015 67.3081 136.052 67.9674 135.47 69.0486C135.385 69.2069 135.703 69.1409 135.713 69.1409C135.946 69.0882 136.19 68.9431 136.38 68.7981C137.184 68.2047 138.19 67.5718 138.624 66.4906C138.708 66.2928 137.957 66.662 137.914 66.6884Z" fill="#FFEFDE"/>
<path d="M140.825 123.427C116.729 160.137 73.1813 165.569 39.3171 149.311C38.0049 148.678 36.7138 148.019 35.4333 147.32C27.2001 142.85 19.1467 136.086 12.8184 127.567C20.1097 132.459 29.0097 135.413 35.465 137.483C64.9904 146.938 96.082 153.346 122.009 128.253C129.205 121.304 135.343 112.18 140.063 101.908C148.127 84.3575 152.043 63.4183 149.958 44.0746C149.778 42.4528 149.556 40.765 149.291 39.0245C151.979 44.668 154.096 50.7203 155.482 57.01C160.509 79.8479 152.392 105.798 140.825 123.427Z" fill="url(#paint5_linear_1_13942)"/>
<defs>
<linearGradient id="paint0_linear_1_13942" x1="45.0374" y1="20.7758" x2="234.145" y2="233.049" gradientUnits="userSpaceOnUse">
<stop stop-color="#FFD061"/>
<stop offset="1" stop-color="#CC5327"/>
</linearGradient>
<linearGradient id="paint1_linear_1_13942" x1="27.5058" y1="15.8177" x2="126.017" y2="139.006" gradientUnits="userSpaceOnUse">
<stop stop-color="#611111"/>
<stop offset="1" stop-color="#310736"/>
</linearGradient>
<linearGradient id="paint2_linear_1_13942" x1="64.0908" y1="-13.4386" x2="162.602" y2="109.749" gradientUnits="userSpaceOnUse">
<stop stop-color="#611111"/>
<stop offset="1" stop-color="#310736"/>
</linearGradient>
<linearGradient id="paint3_linear_1_13942" x1="70.6303" y1="-18.6676" x2="169.142" y2="104.52" gradientUnits="userSpaceOnUse">
<stop stop-color="#611111"/>
<stop offset="1" stop-color="#310736"/>
</linearGradient>
<linearGradient id="paint4_linear_1_13942" x1="18.8427" y1="22.7456" x2="117.354" y2="145.933" gradientUnits="userSpaceOnUse">
<stop stop-color="#611111"/>
<stop offset="1" stop-color="#310736"/>
</linearGradient>
<linearGradient id="paint5_linear_1_13942" x1="44.2557" y1="14.2717" x2="175.174" y2="172.446" gradientUnits="userSpaceOnUse">
<stop stop-color="#FFD061"/>
<stop offset="1" stop-color="#CC5327"/>
</linearGradient>
</defs>
</svg>
