<svg width="157" height="158" viewBox="0 0 157 158" fill="none" xmlns="http://www.w3.org/2000/svg">
<path d="M156.113 86.8893C155.498 91.6897 156.208 95.827 155.954 100.535C155.7 105.136 153.718 109.406 151.038 112.575C149.332 114.604 147.542 116.275 145.582 117.654C144.544 118.397 143.463 119.06 142.308 119.643C142.234 119.696 142.149 119.736 142.075 119.776C141.736 122.879 140.083 125.465 138.494 127.878C137.159 129.92 135.814 131.963 134.479 134.005C132.593 136.856 130.686 139.747 128.281 141.895C125.516 144.348 122.369 146.099 118.99 145.595C118.036 145.449 117.093 145.263 116.161 145.051C113.47 144.428 110.832 143.499 108.268 142.293C107.156 144.348 106.054 146.417 104.952 148.472C104.709 148.936 104.454 149.401 104.126 149.759C104.062 149.838 103.988 149.904 103.914 149.971C100.948 152.583 96.1271 153.074 92.6627 154.095C88.1495 155.434 83.5727 156.429 78.9641 157.078C69.9483 158.352 60.8159 158.312 51.8212 156.919C43.3669 155.62 35.1244 149.918 28.524 143.367C25.1974 140.078 22.1462 136.073 20.1227 131.366C19.1268 129.032 18.7878 127.693 19.0421 125.133C19.1798 123.728 20.4511 121.526 19.2645 120.651C19.1056 120.545 18.9149 120.466 18.6712 120.399C15.5459 119.617 11.2657 120.399 8.74427 117.362C8.53238 117.111 8.36286 116.845 8.20394 116.554C8.02384 116.249 7.87552 115.944 7.71661 115.625C4.35817 108.756 -0.292768 101.609 0.0144703 93.0821C0.0674424 91.4775 0.364058 89.9127 0.713674 88.3745C1.21161 86.2395 1.83669 84.1443 2.14393 81.9563C2.56771 78.9461 2.377 76.8244 3.62714 74.159C4.07211 73.2307 4.59125 72.329 5.16335 71.4803C5.2481 71.3477 5.33286 71.2151 5.42821 71.0825C6.38171 69.6901 7.46233 68.417 8.53237 67.2766C7.87551 65.9638 7.20807 64.651 6.55121 63.3514C6.33932 62.9271 6.11683 62.4895 6.01089 61.9988C6.00029 61.9723 5.98971 61.9591 5.98971 61.9325C5.41761 59.2539 7.16569 53.7109 7.61066 50.9924C8.29929 46.8418 9.13625 42.6249 10.9161 38.9649C12.0815 36.5647 13.5329 34.4032 15.1857 32.4804C17.4847 29.7885 20.1545 27.5739 22.909 25.797C25.9072 23.8742 29.0432 22.3624 32.2109 20.9303C36.7983 18.8483 41.4492 16.9521 45.8142 14.2601C47.1491 13.4247 48.4522 12.523 49.7659 11.6477C51.2703 10.6532 52.7853 9.68514 54.3639 8.90276C56.1119 8.02755 57.9236 7.37779 59.7564 6.88714C62.3627 6.17106 65.043 5.73344 67.6916 5.29583C72.332 4.55323 76.9618 3.79737 81.6021 3.04151C88.0435 1.99391 93.7963 3.54541 100.036 5.58757C102.918 6.52908 105.81 7.47061 108.639 8.62429C115.398 11.3693 122.327 15.1486 127.889 20.7579C130.05 22.9459 131.544 25.5317 132.953 28.2104C134.5 31.1543 135.941 34.1778 138.049 36.8299C139.469 38.6201 141.365 38.3416 143.166 39.3229C144.999 40.3308 146.588 42.1077 148.008 44.1896C149.491 46.3511 150.784 48.8574 151.96 51.1648C152.436 52.0798 152.892 52.955 153.337 53.7772C157.935 62.2641 157.363 77.2089 156.113 86.8893Z" fill="url(#paint0_linear_1_14036)"/>
<path d="M13.0033 50.1567C13.533 50.5678 14.1687 50.6739 14.7832 50.78C18.7137 51.4563 22.6548 52.1458 26.5854 52.8221C23.2269 59.2934 18.8938 64.9557 13.872 69.4379C11.8273 71.2678 9.58131 73.005 8.38414 75.7632C7.03865 78.853 7.25052 82.5925 7.50479 86.1066C7.68489 88.6394 8.00275 91.4905 9.64488 93.0022C11.0857 94.3283 13.141 94.1294 14.7302 93.1083C16.3194 92.074 17.5377 90.3633 18.7137 88.6792C20.8538 85.616 41.015 55.6732 43.8966 61.057C44.2992 61.8262 44.1297 62.834 44.1297 63.749C44.1191 67.3957 46.969 70.3661 46.8737 74.0261C46.8313 75.7632 46.1109 77.3545 45.454 78.8928C42.6253 85.5231 40.6441 92.7237 39.6165 100.123C39.2245 102.974 39.2669 106.594 41.3328 107.894C42.8054 108.809 44.5641 108 46.0367 107.085C51.6729 103.611 56.7265 98.8104 61.3775 93.5194C65.2232 89.1433 68.8253 84.3827 71.7706 79.0121C78.7629 66.2288 81.8988 50.1567 90.7028 39.2564C98.0765 30.1197 109.063 25.1469 113.703 13.5172C103.427 9.91031 94.1778 3.94296 83.2655 5.66685C76.8347 6.68793 70.5522 8.99532 64.0896 9.65836C60.9855 9.97661 57.8389 9.92356 54.8195 10.8518C52.8277 11.4751 50.9314 12.5227 49.0456 13.557C41.4811 17.7342 33.9167 21.9245 26.3523 26.1017C21.7543 28.6478 18.184 31.5916 15.6943 37.0816C14.423 39.8398 9.64486 47.5576 13.0033 50.1567Z" fill="url(#paint1_linear_1_14036)"/>
<path d="M156.113 86.8763C155.498 91.6767 156.208 95.8141 155.954 100.522C155.7 105.123 153.718 109.393 151.038 112.562C149.332 114.591 147.542 116.262 145.582 117.641C144.544 118.384 143.463 119.047 142.308 119.63C142.234 119.683 142.149 119.723 142.075 119.763C141.736 122.866 140.083 125.452 138.494 127.865C137.159 129.908 135.814 131.95 134.479 133.992C132.593 136.843 130.686 139.734 128.281 141.882C125.516 144.335 122.369 146.086 118.99 145.582C118.036 145.436 117.093 145.25 116.161 145.038C113.47 144.415 110.832 143.487 108.268 142.28C107.156 144.335 106.054 146.404 104.952 148.459C104.709 148.923 104.454 149.388 104.126 149.746C104.062 149.825 103.988 149.891 103.914 149.958C100.948 152.57 96.1271 153.061 92.6627 154.082C88.1495 155.421 83.5727 156.416 78.9641 157.066C69.9483 158.339 60.8159 158.299 51.8212 156.906C43.3669 155.607 35.1244 149.905 28.524 143.354C25.1974 140.065 22.1462 136.061 20.1227 131.353C19.1268 129.019 18.7878 127.68 19.0421 125.12C19.1798 123.715 20.4511 121.513 19.2645 120.638C19.1056 120.532 18.9149 120.453 18.6712 120.386C15.5459 119.604 11.2657 120.386 8.74427 117.35C8.53238 117.098 8.36286 116.832 8.20394 116.541C8.02384 116.236 7.87552 115.931 7.71661 115.612C4.35817 108.743 -0.292768 101.596 0.0144703 93.0691C0.0674424 91.4646 0.364058 89.8998 0.713674 88.3615C0.851402 98.0154 1.77315 108.995 10.0792 111.541C14.2746 112.828 18.6712 111.674 22.8772 110.534C21.1609 114.392 21.839 119.392 23.7672 123.105C25.6953 126.804 28.6724 129.43 31.713 131.684C46.3651 142.532 64.1213 146.629 80.9029 143.022C84.897 142.16 88.9017 140.702 92.4508 138.222C95.7139 135.941 97.8116 132.149 101.032 129.549C103.024 127.945 104.804 125.982 105.524 123.065C110.281 129.854 114.222 128.21 120.643 125.89C127.243 123.503 133.112 117.88 136.386 110.268C134.5 108.027 132.614 105.786 130.728 103.545C132.085 104.473 133.441 105.402 134.797 106.33C135.263 106.648 135.793 106.98 136.301 106.794C136.788 106.622 137.085 106.025 137.414 105.534C138.388 104.049 139.84 103.2 141.111 102.113C145.561 98.3734 148.008 91.8093 149.195 85.2585C150.826 76.2677 151.811 66.1763 151.758 56.9601C151.748 55.0638 151.674 53.0216 151.949 51.1519C152.426 52.0668 152.881 52.9421 153.326 53.7642C157.935 62.2511 157.363 77.196 156.113 86.8763Z" fill="url(#paint2_linear_1_14036)"/>
<path d="M31.0457 98.7043C29.3824 102.192 27.719 105.666 26.0451 109.154C24.0851 113.251 22.0828 117.429 19.2647 120.638C19.1058 120.532 18.9151 120.452 18.6714 120.386C15.546 119.603 11.2659 120.386 8.74443 117.349C8.53254 117.097 8.36302 116.832 8.2041 116.54C10.4395 118.237 12.961 119.272 14.9634 117.654C18.0675 115.134 20.7797 110.732 23.4495 107.536C27.0622 103.226 30.4842 99.1552 31.0457 98.7043Z" fill="url(#paint3_linear_1_14036)"/>
<path d="M24.8374 54.0024C22.4748 55.607 20.1229 57.2115 17.7603 58.8161C16.8174 59.4659 15.8639 60.1156 14.9951 60.9113C13.2788 62.5026 10.5667 68.271 8.4054 68.3638H8.31006C9.26356 66.9715 10.3442 65.6984 11.4142 64.558C10.7574 63.2452 10.0899 61.9324 9.43307 60.6328C9.22118 60.2085 8.99868 59.7709 8.89274 59.2802C9.83564 59.1343 10.7786 58.9752 11.7109 58.8294C12.177 58.7631 12.6326 58.6968 13.0987 58.6039C17.167 57.8746 21.1505 56.3098 24.8374 54.0024Z" fill="url(#paint4_linear_1_14036)"/>
<path d="M116.161 145.038C113.47 144.414 110.832 143.486 108.268 142.279C107.156 144.335 106.054 146.403 104.952 148.459C104.709 148.923 104.454 149.387 104.126 149.745C104.55 148.048 105.789 145.74 106.075 144.759C107.124 141.205 106.69 138.195 106.806 134.535C106.849 133.129 107.114 131.75 107.188 130.345C107.707 120.306 98.5851 113.198 97.5469 103.24C99.7399 108.146 102.187 112.893 104.857 117.429C107.622 122.11 110.811 127.547 109.656 133.182C109.402 134.389 108.957 135.609 109.158 136.829C109.37 138.076 110.218 138.977 111.002 139.786C112.718 141.537 114.445 143.287 116.161 145.038Z" fill="url(#paint5_linear_1_14036)"/>
<path d="M145.582 117.641C144.543 118.383 143.463 119.046 142.308 119.63C142.202 117.482 141.598 115.439 140.083 113.915C139.617 113.437 139.087 113.066 138.621 112.588C138.028 111.978 137.551 111.236 137.074 110.493C134.945 107.125 132.837 103.69 130.22 100.919C132.89 103.306 135.559 105.693 138.229 108.08C139.85 109.512 141.545 111.077 142.329 113.358C142.7 114.445 142.869 115.718 143.569 116.527C144.109 117.15 144.861 117.389 145.582 117.641Z" fill="url(#paint6_linear_1_14036)"/>
<path d="M143.633 60.6862C141.503 64.2003 138.706 67.2768 137.583 71.4539C136.661 74.8487 136.958 78.628 135.93 81.9697C134.256 87.4729 129.595 90.4168 125.315 92.8568C122.179 94.647 119.043 96.4372 115.907 98.2407C114.922 98.7976 113.905 99.3678 112.824 99.5402C111.235 99.7789 109.646 99.1026 108.088 98.612C105.482 97.7898 96.1589 94.8459 95.8623 100.217C95.7775 101.795 96.3284 103.306 96.8581 104.752C98.1507 108.266 99.2419 110.029 97.1866 113.331C95.9364 115.334 94.2095 116.846 92.5674 118.304C84.6957 125.332 73.7729 123.277 64.524 123.197C61.494 123.171 58.5593 124.696 55.5399 124.55C50.9207 124.338 47.2021 120.439 44.0555 115.957C43.1338 114.644 42.2651 113.292 41.4387 111.966C40.3475 110.215 39.2351 108.412 38.6206 106.33C38.5676 106.157 38.5146 105.985 38.4723 105.813C37.5929 102.365 41.64 92.7905 36.6606 92.8435C34.5312 92.87 32.4335 94.1298 30.4417 94.8326C27.1151 96.0394 23.6613 97.1268 20.2287 96.5963C13.3529 95.5487 8.62779 86.1468 6.96446 78.3363C6.92208 78.1639 6.89029 78.0047 6.85851 77.8456C6.24403 74.7559 6.79495 71.5335 8.05569 68.7753C8.14044 68.6427 8.2252 68.51 8.32055 68.3774C9.27404 66.9851 10.3547 65.712 11.4247 64.5716C10.7679 63.2588 10.1004 61.946 9.44355 60.6464C9.23166 60.2221 9.00917 59.7845 8.90323 59.2938C8.89263 59.2673 8.88205 59.254 8.88205 59.2275C8.30995 56.5488 10.058 51.0058 10.503 48.2874C11.1916 44.1368 12.0286 39.9198 13.8085 36.2599C14.9738 33.8597 16.4253 31.6982 18.078 29.7754C22.9514 24.8158 28.8207 21.5537 34.5523 18.517C34.7324 18.4242 34.9231 18.3181 35.1033 18.2252C39.5529 15.8648 44.0026 13.5177 48.4522 11.1573C49.8507 10.4146 51.2491 9.67205 52.6582 8.94271C55.9531 7.24533 59.2691 5.601 62.6488 4.1821C65.255 3.46602 67.9354 3.02842 70.584 2.59081C75.2243 1.84821 79.8541 1.09235 84.4945 0.336489C90.9359 -0.711111 96.6886 0.840396 102.929 2.88255C105.81 3.82407 108.703 4.76557 111.531 5.91926C118.291 8.66423 125.219 12.4436 130.782 18.0529C132.699 19.9889 134.087 22.2433 135.358 24.5904C135.517 24.8954 135.687 25.2004 135.846 25.5054C137.509 30.2528 139.172 35.0001 140.836 39.7475C141.439 41.4714 142.043 43.2085 142.976 44.6672C143.781 45.9535 144.819 47.0144 145.487 48.42C147.277 52.2258 145.773 57.1588 143.633 60.6862Z" fill="url(#paint7_linear_1_14036)"/>
<path d="M39.2879 89.6741C39.7753 90.43 39.7859 91.4776 39.7223 92.4456C39.4574 97.0073 38.3344 101.927 38.6205 106.33C38.5675 106.157 38.5145 105.985 38.4722 105.812C37.5928 102.365 41.6399 92.7904 36.6605 92.8435C34.5311 92.87 32.4334 94.1297 30.4416 94.8326C27.115 96.0393 23.6612 97.1267 20.2286 96.5963C13.3528 95.5487 8.62768 86.1468 6.96436 78.3362C7.2504 78.8534 7.48346 79.291 7.63178 79.5827C10.3545 85.0594 14.1474 89.4487 19.434 90.3902C25.2715 91.4245 31.1196 88.2287 37.0101 88.6265C37.8365 88.6796 38.7582 88.8652 39.2879 89.6741Z" fill="#C47695"/>
<path d="M143.632 60.6862C141.503 64.2003 138.706 67.2768 137.583 71.454C136.661 74.8487 136.958 78.628 135.93 81.9698C134.256 87.473 129.595 90.4168 125.314 92.8568C122.178 94.647 119.043 96.4372 115.907 98.2407C114.921 98.7977 113.904 99.3678 112.824 99.5402C111.234 99.7789 109.645 99.1027 108.088 98.612C105.482 97.7898 96.1586 94.8459 95.8619 100.217C95.7772 101.795 96.3281 103.306 96.8578 104.752C98.1503 108.266 99.2416 110.03 97.1862 113.331C95.9361 115.334 94.2092 116.846 92.5671 118.304C84.6954 125.332 73.7725 123.277 64.5236 123.197C61.4936 123.171 58.5589 124.696 55.5395 124.55C50.9204 124.338 47.2017 120.439 44.0552 115.957C46.0681 117.111 48.3989 117.707 50.592 118.198C57.8385 119.842 65.3182 121.487 72.5224 119.564C79.7372 117.654 86.6977 111.276 88.1492 102.232C88.6365 99.1689 88.5094 95.814 89.8443 93.1618C91.55 89.7803 95.1203 88.6532 98.3093 88.9051C101.498 89.1571 104.592 90.4566 107.781 90.6953C110.97 90.9208 114.148 90.0853 117.252 89.1173C124.117 86.9823 131.682 83.3489 134.309 75.1405C135.718 70.7644 135.464 65.659 137.339 61.5615C138.515 58.9889 140.475 56.9334 141.1 54.0691C141.651 51.5628 141.068 48.8974 140.475 46.4044C138.769 39.1242 137.064 31.8573 135.358 24.5905C135.517 24.8955 135.686 25.2005 135.845 25.5054C137.509 30.2528 139.172 35.0002 140.835 39.7475C141.439 41.4714 142.043 43.2086 142.975 44.6672C143.781 45.9535 144.819 47.0144 145.486 48.42C147.277 52.2259 145.772 57.1589 143.632 60.6862Z" fill="#501727"/>
<path d="M14.0945 67.6079C12.6324 69.8225 11.52 72.5409 11.4776 75.4053C11.4353 78.2829 12.6536 81.293 14.7619 82.407C16.6795 83.428 18.8832 82.765 20.8961 82.1019C29.52 79.2509 41.6824 78.0044 49.2362 71.8116C52.2874 69.3186 54.2262 65.0353 57.1396 62.2108C60.89 58.5641 65.2761 55.9783 69.7788 54.1615C77.7564 50.9392 86.1789 49.8783 94.379 47.6372C103.797 45.0514 121.384 37.9171 120.611 22.1766C120.41 18.026 118.28 14.3129 115.621 11.8067C112.962 9.30038 109.794 7.82844 106.669 6.36976C100.725 3.61152 94.4956 0.800228 88.1919 1.755C76.8982 3.46564 65.9542 5.08346 54.9148 9.59212C54.0354 9.95016 53.1455 10.3082 52.3403 10.8784C51.461 11.4884 50.6876 12.3106 49.8719 13.0664C42.0638 20.2803 31.6282 21.1688 23.1421 26.9239C19.2222 29.5893 17.5377 32.0161 15.4611 36.8695C13.1304 42.3329 12.3146 45.1575 11.6154 51.0585C10.9691 56.5219 16.0756 54.4665 17.0397 58.6304C17.7707 61.8262 15.5777 65.3669 14.0945 67.6079Z" fill="url(#paint8_linear_1_14036)"/>
<path d="M83.2229 68.5897C86.5813 66.4547 89.9822 63.7495 91.5925 59.4928C87.7679 53.5387 73.9528 56.297 68.931 58.79C63.5279 61.4687 55.0841 70.3534 55.5291 78.1374C64.7251 78.5353 75.1288 73.7349 83.2229 68.5897Z" fill="url(#paint9_linear_1_14036)"/>
<path d="M55.9955 20.599C59.587 20.5725 63.1679 20.3603 66.7594 20.0553C69.1326 19.8564 69.1431 15.2151 66.7594 15.4141C63.1679 15.7058 59.587 15.918 55.9955 15.9577C53.6011 15.971 53.6011 20.6123 55.9955 20.599Z" fill="#C47695"/>
<path d="M37.3601 39.4295C38.9174 36.8039 40.4854 34.1783 42.0428 31.5526C42.6467 30.5448 42.1699 28.9668 41.3753 28.3833C40.4324 27.6805 39.4366 28.2109 38.8433 29.2187C37.2859 31.8444 35.7285 34.47 34.1605 37.0956C33.5566 38.1034 34.0334 39.6815 34.828 40.265C35.7603 40.9678 36.7562 40.4373 37.3601 39.4295Z" fill="#C47695"/>
<path d="M45.1892 42.2801C47.2445 45.3434 49.2892 48.4066 51.3445 51.4698C52.8807 53.7639 55.4869 50.462 53.9613 48.1944C51.906 45.1312 49.8613 42.0679 47.806 39.0047C46.2804 36.7106 43.6636 40.0125 45.1892 42.2801Z" fill="#C47695"/>
<path d="M29.467 66.8656C32.1368 65.5395 34.796 64.2134 37.4658 62.8741C39.6588 61.7867 38.7054 57.2913 36.4805 58.392C33.8107 59.7181 31.1515 61.0441 28.4817 62.3835C26.2887 63.4841 27.2422 67.9795 29.467 66.8656Z" fill="#C47695"/>
<path d="M52.213 87.009C55.476 90.4568 58.8662 93.6924 62.373 96.7291C64.3436 98.4265 66.1976 94.4085 64.2482 92.7244C60.9957 89.9131 57.8598 86.9162 54.8404 83.7203C53.0181 81.8108 50.3801 85.0729 52.213 87.009Z" fill="#C47695"/>
<path d="M82.5242 86.7038C83.1704 83.5345 84.0392 80.4846 85.1834 77.5539C86.2216 74.8753 83.0327 72.5281 81.9839 75.2068C80.7019 78.4954 79.6743 81.9167 78.9433 85.4706C78.3606 88.3614 81.9415 89.5947 82.5242 86.7038Z" fill="#C47695"/>
<path d="M95.8408 55.0374C98.6695 57.2387 101.456 59.5195 104.2 61.8932C106.16 63.6039 108.024 59.5726 106.075 57.8885C103.342 55.5148 100.555 53.2207 97.716 51.0327C95.6713 49.4546 93.8173 53.4726 95.8408 55.0374Z" fill="#C47695"/>
<path d="M111.065 31.101C114.212 28.0113 117.528 25.2132 120.971 22.6672C123.026 21.1422 121.162 17.1374 119.096 18.6624C115.377 21.4206 111.839 24.4839 108.438 27.8256C106.563 29.6688 109.201 32.931 111.065 31.101Z" fill="#C47695"/>
<path d="M85.4372 16.5543C87.1323 19.0871 88.8274 21.6332 90.5226 24.166C92.0587 26.4601 94.665 23.1582 93.1394 20.8906C91.4443 18.3578 89.7491 15.8117 88.054 13.2789C86.5284 10.9848 83.9116 14.2867 85.4372 16.5543Z" fill="#C47695"/>
<path d="M69.8958 38.5407C73.6356 38.4877 77.3225 38.859 81.0093 39.7077C83.3401 40.2514 84.3466 35.7825 81.9946 35.2388C77.9899 34.3105 73.9746 33.8464 69.8958 33.8995C67.512 33.926 67.5014 38.5673 69.8958 38.5407Z" fill="#C47695"/>
<path d="M124.891 53.6313C124.446 57.331 124.001 61.0308 123.556 64.7438C123.207 67.6611 126.777 68.9209 127.137 65.977C127.582 62.2773 128.027 58.5775 128.472 54.8645C128.822 51.9471 125.241 50.6874 124.891 53.6313Z" fill="#C47695"/>
<path d="M63.4754 70.0483C65.287 70.9633 67.1092 71.8783 68.9209 72.7933C69.8532 73.2574 70.955 72.2894 71.1987 71.1755C71.4847 69.8494 70.8385 68.7885 69.9062 68.3244C68.0945 67.4094 66.2723 66.4944 64.4606 65.5794C63.5283 65.1153 62.4265 66.0833 62.1828 67.1972C61.8862 68.5233 62.5431 69.5842 63.4754 70.0483Z" fill="#C47695"/>
<path d="M55.4549 19.246C59.0464 19.2195 62.6274 19.0073 66.2189 18.7023C68.592 18.5034 68.6026 13.8621 66.2189 14.061C62.6274 14.3528 59.0464 14.5649 55.4549 14.6047C53.0606 14.618 53.0606 19.2592 55.4549 19.246Z" fill="url(#paint10_linear_1_14036)"/>
<path d="M36.8195 38.0765C38.3769 35.4509 39.9343 32.8252 41.5022 30.1996C42.1061 29.1918 41.6294 27.6137 40.8348 27.0303C39.8919 26.3275 38.896 26.8579 38.3027 27.8657C36.7453 30.4913 35.188 33.117 33.62 35.7426C33.0161 36.7504 33.4928 38.3285 34.2874 38.9119C35.2197 39.6147 36.2262 39.0843 36.8195 38.0765Z" fill="url(#paint11_linear_1_14036)"/>
<path d="M44.6486 40.9276C46.704 43.9908 48.7487 47.054 50.804 50.1173C52.3402 52.4114 54.9464 49.1095 53.4208 46.8419C51.3655 43.7786 49.3208 40.7154 47.2655 37.6522C45.7399 35.3581 43.123 38.66 44.6486 40.9276Z" fill="url(#paint12_linear_1_14036)"/>
<path d="M28.9265 65.5132C31.5963 64.1871 34.2555 62.861 36.9253 61.5217C39.1184 60.4343 38.1648 55.9389 35.94 57.0396C33.2702 58.3656 30.611 59.6917 27.9412 61.031C25.7482 62.1317 26.7017 66.6138 28.9265 65.5132Z" fill="url(#paint13_linear_1_14036)"/>
<path d="M51.6724 85.656C54.9355 89.1038 58.3257 92.3394 61.8325 95.3761C63.803 97.0735 65.6571 93.0555 63.7077 91.3713C60.4552 88.5601 57.3193 85.5631 54.2999 82.3673C52.4776 80.4577 49.8396 83.7199 51.6724 85.656Z" fill="url(#paint14_linear_1_14036)"/>
<path d="M81.9941 85.3513C82.6404 82.182 83.5092 79.132 84.6534 76.2014C85.6916 73.5227 82.5027 71.1756 81.4538 73.8542C80.1719 77.1429 79.1443 80.5642 78.4133 84.118C77.82 87.0089 81.4009 88.2422 81.9941 85.3513Z" fill="url(#paint15_linear_1_14036)"/>
<path d="M95.3007 53.6844C98.1294 55.8857 100.916 58.1665 103.66 60.5402C105.62 62.2508 107.484 58.2196 105.535 56.5354C102.802 54.1618 100.015 51.8677 97.1759 49.6796C95.1418 48.1016 93.2771 52.1196 95.3007 53.6844Z" fill="url(#paint16_linear_1_14036)"/>
<path d="M110.524 29.7489C113.671 26.6592 116.987 23.8612 120.43 21.3151C122.485 19.7901 120.621 15.7854 118.555 17.3104C114.836 20.0686 111.298 23.1318 107.897 26.4735C106.022 28.3035 108.67 31.5657 110.524 29.7489Z" fill="url(#paint17_linear_1_14036)"/>
<path d="M84.8967 15.2018C86.5918 17.7346 88.2869 20.2807 89.982 22.8135C91.5182 25.1076 94.1244 21.8056 92.5988 19.538C90.9037 17.0052 89.2086 14.4592 87.5135 11.9264C85.9879 9.63225 83.3711 12.9209 84.8967 15.2018Z" fill="url(#paint18_linear_1_14036)"/>
<path d="M69.3553 37.1747C73.0951 37.1217 76.7819 37.493 80.4688 38.3417C82.7996 38.8854 83.8061 34.4165 81.4541 33.8596C77.4494 32.9313 73.4341 32.4672 69.3553 32.5202C66.9715 32.5732 66.9609 37.2145 69.3553 37.1747Z" fill="url(#paint19_linear_1_14036)"/>
<path d="M124.351 52.2787C123.906 55.9785 123.461 59.6782 123.016 63.3912C122.666 66.3086 126.236 67.5684 126.597 64.6245C127.042 60.9247 127.487 57.225 127.932 53.512C128.281 50.5946 124.7 49.3348 124.351 52.2787Z" fill="url(#paint20_linear_1_14036)"/>
<path d="M62.9348 68.6955C64.7465 69.6105 66.5687 70.5255 68.3804 71.4405C69.3127 71.9046 70.4145 70.9366 70.6582 69.8227C70.9442 68.4966 70.298 67.4358 69.3657 66.9716C67.554 66.0566 65.7318 65.1416 63.9201 64.2266C62.9878 63.7625 61.886 64.7306 61.6423 65.8445C61.3457 67.1573 62.0025 68.2182 62.9348 68.6955Z" fill="url(#paint21_linear_1_14036)"/>
<path d="M25.7908 25.6648C22.6231 26.1024 20.589 28.8342 18.8833 32.083C17.3471 35.0004 15.9486 37.9841 14.3912 40.9014C13.2046 43.116 12.0181 45.8477 13.2788 48.3009C13.4271 48.5927 14.5395 47.8501 14.5395 47.5318C14.6773 42.6386 16.0757 40.3843 18.2794 36.5387C20.3347 32.9715 21.0975 26.8981 25.2505 26.129C25.3988 26.0892 25.9497 25.6383 25.7908 25.6648Z" fill="#FFEFDE"/>
<path d="M33.9911 23.3704C32.2536 22.7604 30.781 23.4235 29.0859 24.0202C28.9375 24.0733 27.8463 24.8556 28.09 24.9352C28.7575 25.1872 29.213 25.2932 29.9334 25.1474C31.0247 24.9352 32.0841 24.5109 33.1436 24.1396C33.2707 24.0998 34.1924 23.4367 33.9911 23.3704Z" fill="#FFEFDE"/>
<path d="M18.4279 57.1453C18.2266 56.6281 17.7711 56.3496 17.3685 56.0314C17.2307 55.9253 16.6163 56.3231 16.5845 56.5088C16.4891 57.0524 16.309 57.6492 16.2985 58.1929C16.2773 58.6968 16.4256 59.2537 16.4362 59.7709C16.4574 60.8848 16.5103 62.0915 16.3832 63.1922C16.3408 63.5237 17.7287 62.7811 17.8664 62.4363C18.3326 61.3092 18.7564 60.1422 18.6822 58.8559C18.6398 58.3255 18.6186 57.6227 18.4279 57.1453Z" fill="#FFEFDE"/>
<path d="M87.715 1.46389C85.6385 -0.100883 80.8287 3.61213 78.7945 4.18235C74.9911 5.26973 71.1771 4.04973 67.4585 5.81341C67.3631 5.8532 66.7487 6.38364 67.1407 6.2643C70.319 5.26974 73.5185 7.05992 76.7392 6.33058C80.0553 5.57472 83.2442 3.57235 86.5073 2.49822C86.6344 2.44518 88.0117 1.68932 87.715 1.46389Z" fill="#FFEFDE"/>
<path d="M92.3448 1.74208C91.8044 1.67577 91.2747 1.5962 90.7344 1.5299C90.406 1.49012 90.0352 1.72881 89.7597 1.92773C89.6961 1.96751 89.124 2.44489 89.3465 2.52446C90.353 2.85597 91.2217 3.21402 92.2706 3.02837C92.4295 3.00185 93.4678 2.5775 93.3406 2.25924C93.1711 1.79512 92.705 1.79512 92.3448 1.74208Z" fill="#FFEFDE"/>
<defs>
<linearGradient id="paint0_linear_1_14036" x1="25.7677" y1="47.4396" x2="246.17" y2="140.866" gradientUnits="userSpaceOnUse">
<stop stop-color="#FFD061"/>
<stop offset="1" stop-color="#CC5327"/>
</linearGradient>
<linearGradient id="paint1_linear_1_14036" x1="-16.5777" y1="13.4568" x2="88.0544" y2="47.4913" gradientUnits="userSpaceOnUse">
<stop stop-color="#BF9A73"/>
<stop offset="1"/>
</linearGradient>
<linearGradient id="paint2_linear_1_14036" x1="-11.7548" y1="11.2181" x2="202.563" y2="126.815" gradientUnits="userSpaceOnUse">
<stop stop-color="#FFD061"/>
<stop offset="1" stop-color="#CC5327"/>
</linearGradient>
<linearGradient id="paint3_linear_1_14036" x1="-37.6971" y1="22.7481" x2="49.7221" y2="105.399" gradientUnits="userSpaceOnUse">
<stop stop-color="#FFD061"/>
<stop offset="1" stop-color="#CC5327"/>
</linearGradient>
<linearGradient id="paint4_linear_1_14036" x1="-21.0344" y1="5.47734" x2="66.3845" y2="88.1284" gradientUnits="userSpaceOnUse">
<stop stop-color="#FFD061"/>
<stop offset="1" stop-color="#CC5327"/>
</linearGradient>
<linearGradient id="paint5_linear_1_14036" x1="2.26031" y1="-19.5138" x2="89.679" y2="63.1369" gradientUnits="userSpaceOnUse">
<stop stop-color="#FFD061"/>
<stop offset="1" stop-color="#CC5327"/>
</linearGradient>
<linearGradient id="paint6_linear_1_14036" x1="30.5046" y1="-49.3882" x2="117.923" y2="33.2628" gradientUnits="userSpaceOnUse">
<stop stop-color="#FFD061"/>
<stop offset="1" stop-color="#CC5327"/>
</linearGradient>
<linearGradient id="paint7_linear_1_14036" x1="37.235" y1="-34.4347" x2="137.394" y2="127.097" gradientUnits="userSpaceOnUse">
<stop stop-color="#8F3333"/>
<stop offset="1" stop-color="#4C0D43"/>
</linearGradient>
<linearGradient id="paint8_linear_1_14036" x1="40.8556" y1="-58.9793" x2="92.1252" y2="81.3214" gradientUnits="userSpaceOnUse">
<stop stop-color="#6A1E3C"/>
<stop offset="1" stop-color="#974E55"/>
</linearGradient>
<linearGradient id="paint9_linear_1_14036" x1="43.5241" y1="-59.954" x2="94.7938" y2="80.3465" gradientUnits="userSpaceOnUse">
<stop stop-color="#99553C"/>
<stop offset="1" stop-color="#420B22"/>
</linearGradient>
<linearGradient id="paint10_linear_1_14036" x1="52.1411" y1="-7.10529" x2="146.565" y2="157.278" gradientUnits="userSpaceOnUse">
<stop offset="0.00558659" stop-color="#6ECFCE"/>
<stop offset="0.9944" stop-color="#153C66"/>
</linearGradient>
<linearGradient id="paint11_linear_1_14036" x1="27.9555" y1="6.78732" x2="122.38" y2="171.172" gradientUnits="userSpaceOnUse">
<stop stop-color="#FFEAAD"/>
<stop offset="0.5342" stop-color="#FBB481"/>
<stop offset="1" stop-color="#F78157"/>
</linearGradient>
<linearGradient id="paint12_linear_1_14036" x1="34.1321" y1="3.23933" x2="128.557" y2="167.624" gradientUnits="userSpaceOnUse">
<stop offset="0.00558659" stop-color="#FF6647"/>
<stop offset="0.9944" stop-color="#750A59"/>
</linearGradient>
<linearGradient id="paint13_linear_1_14036" x1="15.1469" y1="14.1445" x2="109.572" y2="178.53" gradientUnits="userSpaceOnUse">
<stop offset="0.00558659" stop-color="#6ECFCE"/>
<stop offset="0.9944" stop-color="#153C66"/>
</linearGradient>
<linearGradient id="paint14_linear_1_14036" x1="27.8063" y1="6.87263" x2="122.231" y2="171.258" gradientUnits="userSpaceOnUse">
<stop offset="0.00558659" stop-color="#FF6647"/>
<stop offset="0.9944" stop-color="#750A59"/>
</linearGradient>
<linearGradient id="paint15_linear_1_14036" x1="50.1215" y1="-5.94449" x2="144.545" y2="158.439" gradientUnits="userSpaceOnUse">
<stop offset="0.00558659" stop-color="#6ECFCE"/>
<stop offset="0.9944" stop-color="#153C66"/>
</linearGradient>
<linearGradient id="paint16_linear_1_14036" x1="73.1513" y1="-19.174" x2="167.576" y2="145.21" gradientUnits="userSpaceOnUse">
<stop stop-color="#FFEAAD"/>
<stop offset="0.5342" stop-color="#FBB481"/>
<stop offset="1" stop-color="#F78157"/>
</linearGradient>
<linearGradient id="paint17_linear_1_14036" x1="94.1668" y1="-31.2444" x2="188.59" y2="133.137" gradientUnits="userSpaceOnUse">
<stop offset="0.00558659" stop-color="#FF6647"/>
<stop offset="0.9944" stop-color="#750A59"/>
</linearGradient>
<linearGradient id="paint18_linear_1_14036" x1="74.9717" y1="-20.2195" x2="169.397" y2="144.165" gradientUnits="userSpaceOnUse">
<stop stop-color="#FFEAAD"/>
<stop offset="0.5342" stop-color="#FBB481"/>
<stop offset="1" stop-color="#F78157"/>
</linearGradient>
<linearGradient id="paint19_linear_1_14036" x1="58.2944" y1="-10.6393" x2="152.719" y2="153.745" gradientUnits="userSpaceOnUse">
<stop offset="0.00558659" stop-color="#6ECFCE"/>
<stop offset="0.9944" stop-color="#153C66"/>
</linearGradient>
<linearGradient id="paint20_linear_1_14036" x1="92.862" y1="-30.4954" x2="187.286" y2="133.888" gradientUnits="userSpaceOnUse">
<stop offset="0.00558659" stop-color="#6ECFCE"/>
<stop offset="0.9944" stop-color="#153C66"/>
</linearGradient>
<linearGradient id="paint21_linear_1_14036" x1="41.018" y1="-0.716081" x2="135.442" y2="163.668" gradientUnits="userSpaceOnUse">
<stop stop-color="#FFEAAD"/>
<stop offset="0.5342" stop-color="#FBB481"/>
<stop offset="1" stop-color="#F78157"/>
</linearGradient>
</defs>
</svg>
