<svg width="157" height="159" viewBox="0 0 157 159" fill="none" xmlns="http://www.w3.org/2000/svg">
<path d="M78.0338 151.687C118.679 151.687 151.628 118.724 151.628 78.0612C151.628 37.3987 118.679 4.43518 78.0338 4.43518C37.3889 4.43518 4.43964 37.3987 4.43964 78.0612C4.43964 118.724 37.3889 151.687 78.0338 151.687Z" fill="url(#paint0_linear_1_828)"/>
<path opacity="0.7" d="M37.3301 83.905L20.1279 32.6174C15.0079 39.1372 10.9664 46.5411 8.26672 54.5625L48.2882 145.424C53.2653 147.628 58.5348 149.295 64.0187 150.351L37.3301 83.905Z" fill="#FCFFAC"/>
<path d="M57.3783 39.2802L60.5069 35.601L50.3285 9.83038C48.389 10.6202 46.495 11.488 44.6432 12.4305L57.3783 39.2802Z" fill="#FCFFAC"/>
<path opacity="0.7" d="M111.116 50.1358L141.622 115.142C143.409 112.081 144.984 108.876 146.323 105.554L97.3639 6.99958C93.9982 6.08628 90.535 5.40375 86.9971 4.97473L111.116 50.1358Z" fill="#FCFFAC"/>
<path d="M118.2 119.627C139.629 98.1888 139.629 63.4313 118.2 41.9936C96.7718 20.5558 62.0294 20.5558 40.6009 41.9936C19.1725 63.4313 19.1725 98.1888 40.6009 119.627C62.0294 141.064 96.7718 141.064 118.2 119.627Z" fill="#FCFFAC"/>
<path d="M117.04 117.091C138.586 95.5348 138.586 60.586 117.04 39.0302C95.4934 17.4744 60.5598 17.4744 39.0133 39.0302C17.4669 60.586 17.4668 95.5348 39.0133 117.091C60.5597 138.646 95.4934 138.646 117.04 117.091Z" fill="#FBAA12"/>
<path opacity="0.3" d="M123.191 46.3396C126.96 53.8085 129.085 62.2492 129.085 71.1871C129.085 101.67 104.381 126.385 73.9109 126.385C55.2403 126.385 38.7366 117.109 28.7532 102.909C37.8399 120.911 56.4976 133.259 78.0336 133.259C108.504 133.259 133.207 108.545 133.207 78.0612C133.207 66.2534 129.5 55.3133 123.191 46.3396Z" fill="#EA831C"/>
<path opacity="0.25" d="M6.71051 59.8375C13.6076 82.4749 34.6466 98.9468 59.5321 98.9468C90.0249 98.9468 114.745 74.2162 114.745 43.7102C114.745 30.2967 109.966 18.0014 102.019 8.43286C94.5017 5.83923 86.4318 4.43188 78.0305 4.43188C43.6749 4.43513 14.8162 27.9891 6.71051 59.8375Z" fill="#FFFFEB"/>
<path d="M24.2342 80.122C24.2342 49.6386 48.9378 24.9244 79.4079 24.9244C98.1305 24.9244 114.676 34.2556 124.65 48.5206C114.865 33.0985 97.6432 22.8638 78.0337 22.8638C47.5636 22.8638 22.86 47.578 22.86 78.0614C22.86 89.814 26.5311 100.712 32.7915 109.663C27.3725 101.121 24.2342 90.9873 24.2342 80.122Z" fill="#CF7310"/>
<defs>
<linearGradient id="paint0_linear_1_828" x1="25.9945" y1="130.121" x2="130.115" y2="26.0449" gradientUnits="userSpaceOnUse">
<stop stop-color="#FBC01E"/>
<stop offset="0.4609" stop-color="#FDC822"/>
<stop offset="1" stop-color="#FCE13C"/>
</linearGradient>
</defs>
</svg>
