<svg width="157" height="158" viewBox="0 0 157 158" fill="none" xmlns="http://www.w3.org/2000/svg">
<path d="M14.4029 122.299C2.77582 93.5551 14.8537 56.1239 45.0884 33.1465C75.323 10.1692 113.707 9.26091 137.065 29.0896L138.352 28.1137L146.136 38.9238C167.362 68.3908 156.533 113.583 121.949 139.862C87.3663 166.142 42.127 163.556 20.9014 134.085L13.1164 123.275L14.4029 122.299Z" fill="#C6640C"/>
<path d="M15.8767 90.9979L74.6989 124.714L95.127 154.01C66.6435 163.264 36.9289 156.34 20.9014 134.089L13.1164 123.279L14.4029 122.303C12.4506 117.477 11.1676 112.405 10.5226 107.197L15.8767 90.9979Z" fill="#A3490A"/>
<path d="M13.117 123.275C34.3426 152.746 79.5819 155.332 114.165 129.052C148.748 102.773 159.574 57.5808 138.352 28.1138C117.13 -1.35324 71.8872 -3.94267 37.304 22.3365C2.72092 48.6157 -8.10864 93.8082 13.117 123.275Z" fill="url(#paint0_radial_1_866)"/>
<path d="M13.117 123.275C34.3426 152.746 79.5819 155.332 114.165 129.052C148.748 102.773 159.574 57.5808 138.352 28.1138C117.13 -1.35324 71.8872 -3.94267 37.304 22.3365C2.72092 48.6157 -8.10864 93.8082 13.117 123.275Z" fill="url(#paint1_radial_1_866)"/>
<path opacity="0.7" d="M113.416 53.6129L101.282 5.31805C109.04 6.7321 116.346 9.48539 122.827 13.553L136.205 105.281C133.119 110.096 129.509 114.709 125.393 119.022L113.416 53.6129Z" fill="#FCFFAC"/>
<path d="M73.0657 34.2328L68.4814 33.5917L63.6891 8.33476C65.7489 7.65445 67.8156 7.05606 69.8858 6.54315L73.0657 34.2328Z" fill="#FCFFAC"/>
<path opacity="0.7" d="M33.0075 76.8466L40.9832 143.684C37.8622 142.623 34.8523 141.316 31.9811 139.773L22.1953 36.6906C24.581 33.8518 27.1714 31.1199 29.9594 28.5198L33.0075 76.8466Z" fill="#FCFFAC"/>
<path d="M29.3375 114.032C13.5131 92.0605 21.5865 58.3667 47.3699 38.775C73.1534 19.1834 106.883 21.1128 122.708 43.0846C138.532 65.0564 130.458 98.7502 104.675 118.342C78.8916 137.934 45.1619 136.004 29.3375 114.032Z" fill="#FCFFAC"/>
<path d="M28.8115 111.346C12.8995 89.252 21.0179 55.3712 46.9445 35.6708C72.8711 15.9703 106.788 17.9103 122.7 40.0039C138.612 62.0974 130.494 95.9782 104.567 115.679C78.6406 135.379 44.7236 133.439 28.8115 111.346Z" fill="#FBAA12"/>
<path opacity="0.3" d="M20.753 81.9009C21.4431 89.7512 24.0438 97.2417 28.7078 103.721C44.621 125.815 78.5384 127.752 104.466 108.052C120.352 95.9808 129.551 78.5849 130.637 61.8407C132.301 80.7647 122.873 101.772 104.549 115.699C78.6216 135.4 44.7042 133.462 28.7911 111.368C22.6255 102.809 20.0664 92.4867 20.753 81.9009Z" fill="#EA831C"/>
<path opacity="0.25" d="M126.905 16.3739C132.852 37.2391 123.548 62.7809 102.375 78.8697C76.4295 98.5844 42.4879 96.6432 26.5643 74.535C19.5631 64.8147 17.212 52.8149 18.977 40.7439C24.0225 34.0049 30.1534 27.7646 37.3002 22.3364C66.5362 0.121261 103.384 -1.46731 126.905 16.3739Z" fill="#FFFFEB"/>
<path d="M122.584 42.4038C106.671 20.3097 72.7536 18.3721 46.8258 38.0726C30.8953 50.1792 21.6886 67.6358 20.6483 84.4262C20.9223 66.9234 30.233 48.3698 46.9194 35.6897C72.8472 15.9893 106.765 17.9269 122.678 40.0209C128.812 48.5408 131.375 58.8096 130.723 69.3454C130.875 59.6501 128.257 50.279 122.584 42.4038Z" fill="#CF7310"/>
<defs>
<radialGradient id="paint0_radial_1_866" cx="0" cy="0" r="1" gradientUnits="userSpaceOnUse" gradientTransform="translate(75.7332 75.6941) rotate(142.77) scale(78.6441 65.7357)">
<stop stop-color="#FBC01E"/>
<stop offset="0.4609" stop-color="#FDC822"/>
<stop offset="1" stop-color="#FCE13C"/>
</radialGradient>
<radialGradient id="paint1_radial_1_866" cx="0" cy="0" r="1" gradientUnits="userSpaceOnUse" gradientTransform="translate(75.7332 75.6941) rotate(142.77) scale(78.6441 65.7357)">
<stop stop-color="#FBC01E"/>
<stop offset="0.4609" stop-color="#FDC822"/>
<stop offset="1" stop-color="#FCE13C"/>
</radialGradient>
</defs>
</svg>
