<svg width="167" height="188" viewBox="0 0 167 188" fill="none" xmlns="http://www.w3.org/2000/svg">
<path d="M117.845 146.287C117.845 146.287 103.446 156.642 94.088 151.096C84.7306 145.57 56.7768 98.015 57.8209 65.4247C58.8651 32.8345 61.0518 1.3963 80.0298 4.45289C97.2221 7.23307 136.504 52.4225 136.449 82.4167C136.37 112.412 126.023 137.478 117.845 146.287Z" fill="url(#paint0_radial_1_91)"/>
<path d="M116.998 157.151C116.998 157.151 102.903 164.574 91.8143 159.786C80.7471 154.977 46.1007 127.695 29.2457 93.3016C7.0444 47.944 23.7395 9.94079 39.8565 17.1411C55.9736 24.3413 100.563 60.7961 108.67 94.1892C116.777 127.582 122.944 146.171 116.998 157.151Z" fill="url(#paint1_linear_1_91)"/>
<path d="M100.863 175.913C91.6568 173.646 75.7681 167.275 66.9706 160.604C58.1722 153.913 42.6935 117.724 42.1138 79.7035C41.1328 14.7651 77.1568 12.2559 86.6478 27.1853C112.407 67.6576 129.135 58.2939 140.597 100.683C150.794 138.328 141.977 186.025 100.863 175.913Z" fill="url(#paint2_radial_1_91)"/>
<path opacity="0.2" d="M98.5475 170.03C96.2903 158.334 92.437 146.9 88.4992 135.606C84.4926 124.317 80.2192 113.198 76.5649 102.046C72.8888 90.9143 69.8549 79.7488 68.1002 68.4172C66.2537 57.0905 65.8043 45.6502 65.9356 33.8853C61.2537 44.8561 59.3095 56.6981 59.5066 68.5823C59.7058 80.5056 62.16 92.4454 65.9945 103.96C69.8072 115.494 74.8886 126.668 80.4184 137.622C86.0169 148.572 91.9502 159.329 98.5475 170.03Z" fill="#C497EB"/>
<path d="M91.0149 51.2695C89.0023 19.1554 106.849 8.34303 117.943 19.2546C145.037 45.961 159.855 78.3896 162.789 113.115C165.289 142.719 140.994 181.401 108.228 179.883C96.63 179.347 97.5702 156.016 91.0149 51.2695Z" fill="url(#paint3_radial_1_91)"/>
<path opacity="0.2" d="M117.668 34.8025C122.052 45.8373 126.378 56.6404 129.745 67.5925C133.181 78.5214 135.792 89.5334 137.144 100.632C138.494 111.711 138.652 122.874 137.015 133.995C135.447 145.132 131.986 156.136 126.659 167.082C135.961 157.782 142.007 146.524 145.37 134.958C148.707 123.355 149.332 111.368 147.857 99.6693C146.403 87.9499 142.894 76.4967 137.804 65.5974C132.715 54.6981 126.109 44.2709 117.668 34.8025Z" fill="#C497EB"/>
<path d="M43.2694 41.8836C41.9086 19.3992 21.3483 25.4851 17.1562 38.3078C10.3781 59.1332 -8.45974 87.5863 18.0118 132.364C50.5251 187.344 90.8849 185.054 106.149 180.581C138.468 171.148 49.4047 143.933 43.2694 41.8836Z" fill="url(#paint4_radial_1_91)"/>
<path opacity="0.2" d="M20.4337 43.6886C20.6788 55.179 21.2596 66.495 22.3273 77.8828C23.4627 89.2474 25.2935 100.712 29.0228 111.977C32.727 123.205 38.4642 134.167 46.4607 143.933C54.4343 153.701 64.418 162.343 75.9228 169.32C67.624 159.922 59.8578 150.594 53.6702 140.673C47.4157 130.794 42.7471 120.459 39.1866 109.772C35.6262 99.0846 33.1292 88.0665 30.4883 76.9387C27.7796 65.834 25.0168 54.5758 20.4337 43.6886Z" fill="#C497EB"/>
<defs>
<radialGradient id="paint0_radial_1_91" cx="0" cy="0" r="1" gradientUnits="userSpaceOnUse" gradientTransform="translate(85.6309 -28.1572) rotate(178.525) scale(55.8407 74.2768)">
<stop stop-color="#DAC8EB"/>
<stop offset="0.3135" stop-color="#CCAFEB"/>
<stop offset="0.7514" stop-color="#BC91EB"/>
<stop offset="1" stop-color="#B686EB"/>
</radialGradient>
<linearGradient id="paint1_linear_1_91" x1="105.66" y1="82.5389" x2="29.2172" y2="102.345" gradientUnits="userSpaceOnUse">
<stop stop-color="#DAC8EB"/>
<stop offset="0.3135" stop-color="#CCAFEB"/>
<stop offset="0.7514" stop-color="#BC91EB"/>
<stop offset="1" stop-color="#B686EB"/>
</linearGradient>
<radialGradient id="paint2_radial_1_91" cx="0" cy="0" r="1" gradientUnits="userSpaceOnUse" gradientTransform="translate(71.1947 48.3958) rotate(179.369) scale(50.4452 81.1751)">
<stop stop-color="#DAC8EB"/>
<stop offset="0.4448" stop-color="#CBADEB"/>
<stop offset="1" stop-color="#B686EB"/>
</radialGradient>
<radialGradient id="paint3_radial_1_91" cx="0" cy="0" r="1" gradientUnits="userSpaceOnUse" gradientTransform="translate(99.0146 68.0058) rotate(162.78) scale(70.5782 123.94)">
<stop stop-color="#DAC8EB"/>
<stop offset="0.2909" stop-color="#D2B9EB"/>
<stop offset="0.8485" stop-color="#BC92EB"/>
<stop offset="1" stop-color="#B686EB"/>
</radialGradient>
<radialGradient id="paint4_radial_1_91" cx="0" cy="0" r="1" gradientUnits="userSpaceOnUse" gradientTransform="translate(60.8636 71.8281) rotate(-175.928) scale(76.6324 179.067)">
<stop stop-color="#DAC8EB"/>
<stop offset="0.3733" stop-color="#CEB2EB"/>
<stop offset="1" stop-color="#B686EB"/>
</radialGradient>
</defs>
</svg>
