<svg width="167" height="187" viewBox="0 0 167 187" fill="none" xmlns="http://www.w3.org/2000/svg">
<path d="M48.459 145.512C48.459 145.512 62.86 155.815 72.2166 150.302C81.5722 144.808 109.512 97.5169 108.459 65.1015C107.405 32.6861 105.209 1.41618 86.2325 4.45091C69.0413 7.21122 29.7727 52.1466 29.8369 81.9796C29.924 111.814 40.2782 136.748 48.459 145.512Z" fill="url(#paint0_radial_1_113)"/>
<path d="M49.3088 156.318C49.3088 156.318 63.4053 163.705 74.4928 158.946C85.5585 154.166 120.197 127.041 137.041 92.8366C159.229 47.7293 142.524 9.92543 126.409 17.0824C110.294 24.2393 65.7159 60.4854 57.6185 93.6967C49.521 126.908 43.3592 145.395 49.3088 156.318Z" fill="url(#paint1_linear_1_113)"/>
<path d="M65.4486 174.984C74.6542 172.731 90.5409 166.399 99.3363 159.766C108.133 153.114 123.601 117.124 124.17 79.3079C125.132 14.7188 89.1078 12.2128 79.6211 27.0592C53.8743 67.3067 37.1437 57.9885 25.6936 100.147C15.5075 137.586 24.3385 185.03 65.4486 174.984Z" fill="url(#paint2_radial_1_113)"/>
<path opacity="0.2" d="M67.7625 169.133C70.0163 157.501 73.8663 146.129 77.8008 134.897C81.8041 123.669 86.0743 112.611 89.7253 101.52C93.3981 90.4497 96.4288 79.3451 98.1803 68.0749C100.023 56.8096 100.47 45.4308 100.335 33.7292C105.02 44.6424 106.967 56.4213 106.774 68.2416C106.578 80.1007 104.127 91.9757 100.296 103.427C96.4868 114.899 91.4086 126.011 85.8821 136.904C80.2868 147.794 74.3567 158.491 67.7625 169.133Z" fill="#C497EB"/>
<path d="M75.2608 51.0128C77.2642 19.0719 59.4144 8.31242 48.3239 19.1621C21.2376 45.7173 6.42907 77.9674 3.50507 112.506C1.01392 141.949 25.3199 180.431 58.0847 178.93C69.6825 178.401 68.7356 155.195 75.2608 51.0128Z" fill="url(#paint3_radial_1_113)"/>
<path opacity="0.2" d="M48.6033 34.6266C44.2225 45.6009 39.9 56.3447 36.5357 67.237C33.1036 78.1062 30.4951 89.0582 29.147 100.097C27.8 111.116 27.6446 122.219 29.2854 133.281C30.8564 144.359 34.3206 155.304 39.6508 166.193C30.3461 156.94 24.2964 145.74 20.9311 134.236C17.5907 122.694 16.9618 110.772 18.4337 99.1362C19.8837 87.4802 23.3897 76.0896 28.4763 65.2503C33.5629 54.411 40.1655 44.0418 48.6033 34.6266Z" fill="#C497EB"/>
<path d="M123.003 41.6911C124.357 19.3279 144.919 25.3869 149.115 38.142C155.899 58.8574 174.744 87.163 148.286 131.692C115.789 186.368 75.4292 184.078 60.164 179.625C27.8424 170.234 116.897 143.191 123.003 41.6911Z" fill="url(#paint4_radial_1_113)"/>
<path opacity="0.2" d="M145.839 43.4929C145.597 54.9215 145.02 66.1765 143.955 77.5028C142.823 88.806 140.996 100.208 137.27 111.412C133.569 122.578 127.835 133.48 119.841 143.192C111.87 152.904 101.889 161.497 90.3868 168.433C98.6828 159.089 106.446 149.813 112.631 139.946C118.882 130.123 123.548 119.845 127.105 109.216C130.663 98.5868 133.156 87.6286 135.794 76.5614C138.5 65.5172 141.259 54.3203 145.839 43.4929Z" fill="#C497EB"/>
<defs>
<radialGradient id="paint0_radial_1_113" cx="0" cy="0" r="1" gradientUnits="userSpaceOnUse" gradientTransform="translate(80.6222 -27.9856) rotate(1.48372) scale(55.8404 73.8768)">
<stop stop-color="#DAC8EB"/>
<stop offset="0.3135" stop-color="#CCAFEB"/>
<stop offset="0.7514" stop-color="#BC91EB"/>
<stop offset="1" stop-color="#B686EB"/>
</radialGradient>
<linearGradient id="paint1_linear_1_113" x1="60.6252" y1="82.11" x2="137.031" y2="101.993" gradientUnits="userSpaceOnUse">
<stop stop-color="#DAC8EB"/>
<stop offset="0.3135" stop-color="#CCAFEB"/>
<stop offset="0.7514" stop-color="#BC91EB"/>
<stop offset="1" stop-color="#B686EB"/>
</linearGradient>
<radialGradient id="paint2_radial_1_113" cx="0" cy="0" r="1" gradientUnits="userSpaceOnUse" gradientTransform="translate(95.0801 48.1602) rotate(0.643606) scale(50.4447 80.7384)">
<stop stop-color="#DAC8EB"/>
<stop offset="0.4448" stop-color="#CBADEB"/>
<stop offset="1" stop-color="#B686EB"/>
</radialGradient>
<radialGradient id="paint3_radial_1_113" cx="0" cy="0" r="1" gradientUnits="userSpaceOnUse" gradientTransform="translate(67.266 67.6568) rotate(17.1467) scale(70.5555 123.312)">
<stop stop-color="#DAC8EB"/>
<stop offset="0.2909" stop-color="#D2B9EB"/>
<stop offset="0.8485" stop-color="#BC92EB"/>
<stop offset="1" stop-color="#B686EB"/>
</radialGradient>
<radialGradient id="paint4_radial_1_113" cx="0" cy="0" r="1" gradientUnits="userSpaceOnUse" gradientTransform="translate(105.418 71.4696) rotate(-4.03426) scale(76.626 178.117)">
<stop stop-color="#DAC8EB"/>
<stop offset="0.3733" stop-color="#CEB2EB"/>
<stop offset="1" stop-color="#B686EB"/>
</radialGradient>
</defs>
</svg>
