<svg width="216" height="223" viewBox="0 0 216 223" fill="none" xmlns="http://www.w3.org/2000/svg">
<g filter="url(#filter0_f_1_6791)">
<path d="M89.7818 30.5791C103.25 26.3125 128.914 71.3173 128.914 71.3173C128.914 71.3173 176.424 50.6908 184.648 62.1942C192.864 73.6717 157.987 111.999 157.987 111.999C157.987 111.999 192.276 150.83 183.899 162.188C175.522 173.546 128.295 152.24 128.295 152.24C128.295 152.24 101.977 196.844 88.5622 192.39C75.1473 187.936 80.8489 136.436 80.8489 136.436C80.8489 136.436 30.2902 125.174 30.3725 111.068C30.4807 96.9537 81.1937 86.4348 81.1937 86.4348C81.1937 86.4348 76.3137 34.8458 89.7818 30.5791Z" fill="url(#paint0_linear_1_6791)"/>
</g>
<g filter="url(#filter1_f_1_6791)">
<path d="M89.7819 30.5794C103.25 26.3127 128.914 71.3175 128.914 71.3175C128.914 71.3175 176.424 50.6911 184.648 62.1944C192.864 73.6719 157.987 112 157.987 112C157.987 112 192.276 150.83 183.899 162.188C175.522 173.546 128.295 152.24 128.295 152.24C128.295 152.24 101.977 196.845 88.5623 192.39C75.1474 187.936 80.849 136.437 80.849 136.437C80.849 136.437 30.2903 125.175 30.3726 111.068C30.4808 96.954 81.1938 86.435 81.1938 86.435C81.1938 86.435 76.3138 34.846 89.7819 30.5794Z" fill="url(#paint1_linear_1_6791)"/>
</g>
<g filter="url(#filter2_f_1_6791)">
<path d="M89.7819 30.5794C103.25 26.3127 128.914 71.3175 128.914 71.3175C128.914 71.3175 176.424 50.6911 184.648 62.1944C192.864 73.6719 157.987 112 157.987 112C157.987 112 192.276 150.83 183.899 162.188C175.522 173.546 128.295 152.24 128.295 152.24C128.295 152.24 101.977 196.845 88.5623 192.39C75.1474 187.936 80.849 136.437 80.849 136.437C80.849 136.437 30.2903 125.175 30.3726 111.068C30.4808 96.954 81.1938 86.435 81.1938 86.435C81.1938 86.435 76.3138 34.846 89.7819 30.5794Z" fill="url(#paint2_linear_1_6791)"/>
</g>
<path d="M89.7813 30.5795C102.577 26.5258 127.005 69.3337 127.005 69.3337C127.005 69.3337 172.219 49.7192 180.031 60.6418C187.844 71.5644 154.675 108.014 154.675 108.014C154.675 108.014 187.312 144.95 179.329 155.756C171.346 166.563 126.437 146.286 126.437 146.286C126.437 146.286 101.395 188.723 88.6456 184.485C75.8965 180.246 81.3118 131.255 81.3118 131.255C81.3118 131.255 33.2062 120.553 33.3041 107.125C33.402 93.696 81.6629 83.6978 81.6629 83.6978C81.6629 83.6978 76.9853 34.6332 89.7813 30.5795Z" fill="url(#paint3_radial_1_6791)"/>
<path d="M153.644 104.756C153.644 104.756 185.789 140.141 177.75 150.681C169.677 161.203 125.128 142.064 125.128 142.064C125.128 142.064 99.7257 183.364 87.0666 179.409C74.4252 175.421 80.3318 127.981 80.3318 127.981C80.3318 127.981 32.4789 118.166 32.716 105.177C32.716 105.177 32.716 105.177 32.7337 105.143C33.0389 92.1895 81.1649 82.035 81.1649 82.035C81.1649 82.035 76.9938 34.6588 89.8156 30.5969C102.637 26.5349 126.507 67.6709 126.507 67.6709C126.507 67.6709 165.089 51.096 177.079 56.7982C178.075 57.2505 178.872 57.8799 179.469 58.6864C187.09 69.1859 153.644 104.756 153.644 104.756Z" fill="url(#paint4_linear_1_6791)"/>
<path d="M153.3 103.671C153.3 103.671 185.445 139.056 177.406 149.595C169.333 160.117 123.777 137.799 123.777 137.799C123.777 137.799 99.3819 182.278 86.7229 178.324C74.0815 174.335 79.988 126.896 79.988 126.896C79.988 126.896 32.1351 117.081 32.3723 104.092C32.3723 104.092 32.3723 104.092 32.3899 104.058C32.6952 91.1038 80.8211 80.9493 80.8211 80.9493C80.8211 80.9493 76.65 33.5731 89.4719 29.5112C102.294 25.4493 126.163 66.5852 126.163 66.5852C126.163 66.5852 164.745 50.0103 176.735 55.7125C177.732 56.1648 178.528 56.7942 179.125 57.6007C186.747 68.1002 153.3 103.671 153.3 103.671Z" fill="url(#paint5_linear_1_6791)"/>
<path d="M177.02 56.7886C176.654 57.7008 176.126 58.6362 175.418 59.5433C160.038 79.7756 122.029 89.0008 78.3623 92.8501C36.371 96.5101 32.8807 104.528 32.7084 105.151C33.0137 92.1976 81.1396 82.043 81.1396 82.043C81.1396 82.043 76.9685 34.6669 89.7904 30.6049C102.612 26.543 126.481 67.6789 126.481 67.6789C126.481 67.6789 165.056 51.0781 177.02 56.7886Z" fill="#FEEA80"/>
<path d="M82.0488 49.3563C82.0488 49.3563 84.0682 34.1812 88.1651 33.1962C92.262 32.2112 91.6924 43.343 90.7507 44.9497C89.7832 46.5647 83.5914 50.0054 82.0488 49.3563Z" fill="white"/>
<path d="M35.1653 102.581C35.4503 104.738 49.4833 95.9687 48.9208 94.0136C48.3759 92.0244 34.5059 97.357 35.1653 102.581Z" fill="white"/>
<path d="M176.186 138.291C174.469 136.73 177.029 151.905 177.742 150.655C178.438 149.439 182.271 143.759 176.186 138.291Z" fill="white"/>
<path d="M87.7525 134.704C89.9088 133.879 92.3281 134.961 93.1793 137.11C94.0046 139.266 92.9223 141.685 90.7742 142.536C88.6178 143.362 86.1984 142.279 85.3472 140.131C84.5136 137.949 85.5961 135.53 87.7525 134.704Z" fill="white" fill-opacity="0.4"/>
<path d="M120.815 80.5957C122.972 79.7703 125.391 80.8528 126.242 83.0009C127.068 85.1573 125.985 87.5767 123.837 88.4279C121.681 89.2532 119.236 88.1789 118.41 86.0226C117.585 83.8662 118.667 81.4469 120.815 80.5957Z" fill="white" fill-opacity="0.4"/>
<path d="M96.0406 78.8016C102.104 76.4825 108.894 79.5084 111.205 85.5462C113.524 91.6098 110.498 98.3996 104.461 100.711C98.3969 103.03 91.6071 100.004 89.2961 93.966C86.9511 87.9106 89.977 81.1208 96.0406 78.8016Z" fill="white" fill-opacity="0.4"/>
<path d="M94.4314 146.27C95.8803 145.726 97.499 146.436 98.0434 147.885C98.5877 149.334 97.8775 150.953 96.4286 151.497C94.9797 152.042 93.3608 151.331 92.8164 149.883C92.2721 148.434 92.9825 146.815 94.4314 146.27Z" fill="white" fill-opacity="0.4"/>
<path d="M144.302 131.297C145.751 130.752 147.37 131.463 147.914 132.911C148.459 134.36 147.748 135.979 146.299 136.524C144.85 137.068 143.232 136.358 142.687 134.909C142.143 133.46 142.853 131.841 144.302 131.297Z" fill="white" fill-opacity="0.4"/>
<defs>
<filter id="filter0_f_1_6791" x="0.372406" y="0.293945" width="215.529" height="222.409" filterUnits="userSpaceOnUse" color-interpolation-filters="sRGB">
<feFlood flood-opacity="0" result="BackgroundImageFix"/>
<feBlend mode="normal" in="SourceGraphic" in2="BackgroundImageFix" result="shape"/>
<feGaussianBlur stdDeviation="15" result="effect1_foregroundBlur_1_6791"/>
</filter>
<filter id="filter1_f_1_6791" x="10.3725" y="10.2942" width="195.529" height="202.409" filterUnits="userSpaceOnUse" color-interpolation-filters="sRGB">
<feFlood flood-opacity="0" result="BackgroundImageFix"/>
<feBlend mode="normal" in="SourceGraphic" in2="BackgroundImageFix" result="shape"/>
<feGaussianBlur stdDeviation="10" result="effect1_foregroundBlur_1_6791"/>
</filter>
<filter id="filter2_f_1_6791" x="20.3725" y="20.2942" width="175.529" height="182.409" filterUnits="userSpaceOnUse" color-interpolation-filters="sRGB">
<feFlood flood-opacity="0" result="BackgroundImageFix"/>
<feBlend mode="normal" in="SourceGraphic" in2="BackgroundImageFix" result="shape"/>
<feGaussianBlur stdDeviation="5" result="effect1_foregroundBlur_1_6791"/>
</filter>
<linearGradient id="paint0_linear_1_6791" x1="136.637" y1="178.477" x2="138.5" y2="15" gradientUnits="userSpaceOnUse">
<stop stop-color="#6F41DA"/>
<stop offset="1" stop-color="#6EF0A2"/>
</linearGradient>
<linearGradient id="paint1_linear_1_6791" x1="136.637" y1="178.477" x2="138.5" y2="15.0002" gradientUnits="userSpaceOnUse">
<stop stop-color="#6F41DA"/>
<stop offset="1" stop-color="#6EF0A2"/>
</linearGradient>
<linearGradient id="paint2_linear_1_6791" x1="136.637" y1="178.477" x2="138.5" y2="15.0002" gradientUnits="userSpaceOnUse">
<stop stop-color="#6F41DA"/>
<stop offset="1" stop-color="#6EF0A2"/>
</linearGradient>
<radialGradient id="paint3_radial_1_6791" cx="0" cy="0" r="1" gradientUnits="userSpaceOnUse" gradientTransform="translate(112.071 100.932) rotate(-17.578) scale(75.5435 75.5435)">
<stop stop-color="#FFBD00"/>
<stop offset="1" stop-color="#FF772C"/>
</radialGradient>
<linearGradient id="paint4_linear_1_6791" x1="132.736" y1="166.164" x2="89.7859" y2="30.5867" gradientUnits="userSpaceOnUse">
<stop stop-color="#FFF300"/>
<stop offset="1" stop-color="#FF9700"/>
</linearGradient>
<linearGradient id="paint5_linear_1_6791" x1="132.365" y1="164.991" x2="89.4442" y2="29.5074" gradientUnits="userSpaceOnUse">
<stop stop-color="#FFDD55"/>
<stop offset="1" stop-color="#FFEC43"/>
</linearGradient>
</defs>
</svg>
