<svg width="157" height="130" viewBox="0 0 157 130" fill="none" xmlns="http://www.w3.org/2000/svg">
<path d="M98.2629 7.69382V25.4117H58.0625V7.69382C58.0625 3.57205 61.8232 0.251708 66.4916 0.251708H89.8014C94.5023 0.223085 98.2629 3.57205 98.2629 7.69382Z" fill="white"/>
<path d="M78.1962 25.4116H58.0959V7.69364C58.0959 3.57186 61.8567 0.251526 66.5251 0.251526H78.1638V20.7459L78.1962 25.4116Z" fill="#8AF3FF"/>
<path d="M91.3249 125.536C87.7263 128.341 83.2848 129.772 78.8108 129.972C73.5264 130.23 68.1448 128.656 63.9951 125.25C-32.8426 46.6209 1.65192 2.65533 34.6552 2.97019C66.9128 3.25642 77.6113 23.0351 78.8108 25.5254C78.9081 25.6971 78.9406 25.7831 78.9406 25.7831C78.9406 25.7831 89.3797 3.514 123.809 3.82885C156.78 4.20096 190.173 48.8535 91.3249 125.536Z" fill="#FF5287"/>
<path d="M78.1952 25.5261V129.944C72.9108 130.202 67.5291 128.628 63.3794 125.222C-33.4583 46.593 1.0362 2.62737 34.0395 2.94223C66.2971 3.25709 76.9633 23.0645 78.1952 25.5261Z" fill="#FF2E60"/>
<path d="M100.598 27.1568C119.044 9.95406 148.384 20.8882 133.731 55.0933" stroke="white" stroke-width="2" stroke-miterlimit="10"/>
</svg>
