<svg width="157" height="130" viewBox="0 0 157 130" fill="none" xmlns="http://www.w3.org/2000/svg">
<path d="M98.2759 7.71589V25.4305H58.0703V7.71589C58.0703 3.59487 61.8315 0.275145 66.5005 0.275145H89.8133C94.4823 0.246527 98.2759 3.59487 98.2759 7.71589Z" fill="white"/>
<path d="M78.1731 25.4304H58.0703V7.71577C58.0703 3.59475 61.8315 0.275024 66.5005 0.275024H78.1407V20.7656L78.1731 25.4304Z" fill="#8AF3FF"/>
<path d="M91.3049 125.538C87.7058 128.342 83.2638 129.773 78.7893 129.973C73.5042 130.231 68.1218 128.657 63.9715 125.251C-32.8787 46.6373 1.62036 2.67974 34.6279 2.99454C66.8897 3.28072 77.5896 23.0559 78.7893 25.5457C78.8865 25.7174 78.9189 25.8032 78.9189 25.8032C78.9189 25.8032 89.3595 3.53825 123.794 3.85305C156.801 4.22508 190.165 48.8409 91.3049 125.538Z" fill="#8AF3FF"/>
<path opacity="0.5" d="M78.2052 25.545V129.944C72.9202 130.202 67.5378 128.628 63.3875 125.222C-33.4627 46.6079 1.03636 2.65038 34.0439 2.96518C66.3057 3.27998 76.9731 23.0552 78.2052 25.545Z" fill="#00AB91"/>
<path d="M100.611 27.1767C119.06 9.97713 148.404 20.9092 133.748 55.1079" stroke="white" stroke-width="2" stroke-miterlimit="10"/>
</svg>
