<svg width="157" height="158" viewBox="0 0 157 158" fill="none" xmlns="http://www.w3.org/2000/svg">
<path d="M155.669 74.2837C154.483 68.268 152.542 62.5101 149.918 57.6259C146.935 52.0686 142.897 47.3993 138.153 44.019C120.337 31.3288 97.7406 31.7442 78.1757 33.9213C59.689 35.9838 41.0226 42.4578 26.5975 55.9645C19.3251 62.7822 12.5199 72.7654 8.55415 83.8371C4.21703 95.9831 4.5405 109.218 7.71546 121.607C12.8074 141.487 32.2046 150.196 47.696 154.507C74.2699 161.912 104.989 157.558 128.088 141.301C141.855 131.605 153.608 115.591 156.4 96.3841C157.418 89.4088 157.118 81.66 155.669 74.2837Z" fill="url(#paint0_linear_1_13969)"/>
<path d="M155.705 86.014C155.657 86.8161 155.585 87.6182 155.489 88.4203C155.406 89.1221 155.31 89.8239 155.202 90.5258C152.29 109.332 140.453 124.958 126.627 134.354C103.432 150.138 72.6768 154.177 46.1389 146.715C30.6715 142.375 11.3222 133.695 6.35004 114.159C4.79251 108.072 4.66073 101.755 5.59525 95.5532C6.18232 91.5857 7.2007 87.6468 8.56653 83.8369C12.5203 72.7652 19.3255 62.782 26.5979 55.9642C41.023 42.4576 59.6894 35.9836 78.1761 33.921C88.4797 32.7609 99.6101 32.1163 110.453 33.5773C110.513 33.5916 110.573 33.6059 110.633 33.6059C114.55 34.1645 118.432 34.9809 122.218 36.1698C122.23 36.1698 122.23 36.1698 122.242 36.1841C122.997 36.4276 123.752 36.6711 124.495 36.9432C129.251 38.6333 133.852 40.9393 138.153 44.0045C139.603 45.0357 140.968 46.1816 142.238 47.399C142.322 47.4707 142.406 47.5566 142.478 47.6425C151.656 56.5944 156.232 70.23 155.801 83.8512V83.8655C155.777 84.596 155.753 85.3122 155.705 86.014Z" fill="url(#paint1_linear_1_13969)"/>
<path d="M155.489 88.4201C155.406 89.122 155.31 89.8238 155.202 90.5256C152.29 109.332 140.453 124.958 126.627 134.354C103.432 150.138 72.6768 154.177 46.1389 146.715C30.6715 142.375 11.3222 133.695 6.35004 114.159C4.79251 108.071 4.66073 101.755 5.59525 95.553C5.79893 99.4919 5.02015 102.972 5.91872 106.94C14.3533 143.965 59.9889 147.99 86.1315 146.07C102.533 144.867 118.432 139.009 131.863 127.508C145.641 115.72 156.005 93.7626 153.273 73.1518C152.554 67.666 150.877 62.4095 148.373 57.7402C145.533 52.412 141.424 48.2726 136.991 44.9353C133.001 41.9418 127.118 37.3441 122.398 36.4847C123.093 36.6136 123.788 36.7569 124.483 36.9431C129.239 38.6332 133.84 40.9392 138.141 44.0043C139.591 45.0356 140.956 46.1815 142.226 47.3989C142.31 47.4705 142.394 47.5565 142.466 47.6424C144.335 49.5617 146.048 51.7101 147.57 54.0305C153.956 63.7845 156.867 76.2742 155.489 88.4201Z" fill="url(#paint2_linear_1_13969)"/>
<path d="M152.985 70.1873C152.29 73.8396 151.236 76.5754 151.332 80.3853C151.332 84.2095 152.386 88.9648 151.2 92.5885C149.798 96.8998 145.928 101.383 143.652 105.164C141.951 108 140.166 110.936 137.65 112.712C137.626 112.727 137.614 112.741 137.59 112.755C135.134 114.474 132.174 114.947 129.754 116.737C127.849 118.155 126.411 120.289 124.974 122.38C124.734 122.724 124.494 123.068 124.255 123.412C118.696 131.275 110.932 137.319 102.366 138.351C100.005 138.637 97.6211 138.551 95.2489 138.451C94.9613 138.437 94.6858 138.422 94.3982 138.422C90.3127 138.25 86.2152 138.093 82.1297 137.935C78.5953 137.806 74.402 136.847 70.9994 138.265C65.2006 140.685 60.1925 144.61 54.0822 143.55C53.1117 143.392 52.1293 143.106 51.0989 142.676C49.2419 141.874 47.5765 140.843 45.9711 139.769C42.6164 137.491 39.4893 135.013 35.2241 134.011C29.653 132.707 23.7583 132.378 18.6784 129.069C12.4243 124.987 11.322 117.625 7.97933 110.836C6.24209 107.313 4.46891 103.66 4.07354 99.6068C3.48647 93.6771 5.95455 87.8619 9.22537 83.3502C9.36914 83.1496 9.27329 83.3931 9.46498 83.2785C30.7193 70.5167 47.3489 48.9175 70.8795 44.7209C77.2534 43.5894 83.7112 43.1167 90.145 42.6584C107.314 41.4123 125.022 40.3237 142.19 39.0919C148.756 44.0477 152.961 52.9996 153.476 62.238C153.632 64.8877 153.476 67.5805 152.985 70.1873Z" fill="url(#paint3_linear_1_13969)"/>
<path d="M94.3985 138.422C90.313 138.25 86.2155 138.093 82.13 137.935C78.5956 137.806 74.4023 136.847 70.9997 138.265C65.2009 140.685 60.1928 144.61 54.0825 143.55C57.7727 142.733 61.1872 139.167 64.7456 137.09C73.8511 131.791 84.1548 136.36 94.3985 138.422Z" fill="#420B22"/>
<path d="M137.65 112.712C137.626 112.726 137.614 112.741 137.59 112.755C135.134 114.474 132.175 114.947 129.755 116.737C127.85 118.155 126.412 120.289 124.974 122.38C126.184 119.616 127.382 116.823 129.467 115.004C131.791 112.97 134.715 112.583 137.65 112.712Z" fill="#420B22"/>
<path d="M153.476 62.238C152.865 65.0453 152.147 67.824 151.332 70.5597C149.714 76.0168 147.342 79.7408 144.73 84.4244C141.663 89.9101 139.614 95.625 135.793 100.552C131.659 105.88 126.675 110.263 121.32 113.672C110.105 120.776 97.4893 123.97 85.065 127.064C77.6128 128.926 70.0049 130.802 62.433 129.857C49.8289 128.296 37.8719 119.058 25.3518 121.464C24.7407 124.758 27.4245 127.694 30.1322 128.683C32.8279 129.671 35.7992 129.585 38.3392 131.046C41.4782 132.851 43.5269 136.775 45.9711 139.769C42.6164 137.491 39.4893 135.013 35.2241 134.011C29.653 132.707 23.7583 132.378 18.6784 129.069C12.4243 124.987 11.322 117.625 7.97933 110.836C6.24209 107.313 4.46891 103.66 4.07354 99.6068C3.48647 93.6771 5.95455 87.8619 9.22537 83.3502C9.36914 83.1496 9.27329 83.3931 9.46498 83.2785C30.7193 70.5167 47.3489 48.9175 70.8795 44.7209C77.2534 43.5894 83.7112 43.1167 90.145 42.6584C107.314 41.4123 125.022 40.3237 142.19 39.0919C148.756 44.0477 152.961 52.9996 153.476 62.238Z" fill="#420B22"/>
<path d="M150.661 41.5412C149.475 35.5255 147.534 29.7677 144.91 24.8835C141.927 19.3262 137.889 14.6569 133.145 11.2766C115.329 -1.41361 92.7328 -0.998248 73.1679 1.17886C54.6812 3.24138 36.0148 9.7154 21.5897 23.222C14.3172 30.0398 7.51203 40.023 3.54633 51.0947C-0.790793 63.2407 -0.467303 76.4752 2.70766 88.8646C7.79958 108.745 27.1968 117.453 42.6882 121.765C69.2621 129.17 99.9813 124.815 123.081 108.559C136.847 98.8621 148.6 82.8489 151.392 63.6417C152.422 56.6807 152.111 48.9176 150.661 41.5412Z" fill="url(#paint4_linear_1_13969)"/>
<path d="M150.697 53.2863C150.649 54.0884 150.577 54.8905 150.481 55.6926C150.397 56.3944 150.301 57.0963 150.194 57.7981C147.282 76.6043 135.445 92.2307 121.619 101.627C98.4237 117.411 67.6685 121.45 41.1306 113.987C25.6632 109.648 6.31386 100.968 1.34175 81.4311C-0.215778 75.3438 -0.347575 69.0274 0.586943 62.8255C1.17401 58.858 2.19239 54.9192 3.55822 51.1092C7.51195 40.0375 14.3172 30.0543 21.5896 23.2366C36.0147 9.72992 54.6811 3.25591 73.1678 1.19339C83.4714 0.0332187 94.6018 -0.611321 105.445 0.84963C105.504 0.863953 105.564 0.878277 105.624 0.878277C109.542 1.43688 113.424 2.25329 117.21 3.44211C117.222 3.44211 117.222 3.4421 117.234 3.45643C117.989 3.69992 118.743 3.94341 119.486 4.21555C124.243 5.90567 128.843 8.21168 133.145 11.2768C134.594 12.3081 135.96 13.4539 137.23 14.6714C137.314 14.743 137.398 14.8289 137.47 14.9149C146.647 23.8668 151.224 37.5023 150.793 51.1236V51.1379C150.781 51.854 150.745 52.5702 150.697 53.2863Z" fill="url(#paint5_linear_1_13969)"/>
<path d="M150.481 55.6924C150.397 56.3942 150.301 57.0961 150.194 57.7979C147.282 76.6041 135.445 92.2305 121.619 101.626C98.4237 117.41 67.6685 121.45 41.1306 113.987C25.6632 109.647 6.31386 100.968 1.34175 81.4309C-0.215778 75.3436 -0.347575 69.0272 0.586943 62.8253C0.79062 66.7641 0.0118602 70.2446 0.910435 74.2121C2.74353 82.2617 6.7332 89.5808 12.1606 94.8087C17.0728 99.5639 23.0034 102.543 28.9579 105.078C47.0013 112.727 65.5958 114.603 84.4419 110.421C96.4589 107.742 110.812 105.322 121.367 97.4298C140.094 83.4219 156.975 50.5934 143.376 25.0124C140.537 19.6843 136.427 15.5449 131.994 12.2076C128.005 9.2141 122.122 4.6164 117.402 3.75702C118.097 3.88593 118.791 4.02916 119.486 4.21536C124.243 5.90548 128.843 8.21149 133.145 11.2766C134.594 12.3079 135.96 13.4537 137.23 14.6712C137.314 14.7428 137.398 14.8287 137.47 14.9147C139.339 16.834 141.052 18.9824 142.574 21.3028C148.948 31.0568 151.859 43.5465 150.481 55.6924Z" fill="url(#paint6_linear_1_13969)"/>
<path d="M54.286 56.1651C55.8435 55.8643 59.1862 56.3083 58.2876 59.3162C57.9522 60.4191 57.0176 61.0493 56.143 61.5219C54.1782 62.5818 51.6022 64.1717 49.8171 61.7798C47.5047 58.7003 52.405 56.5232 54.286 56.1651Z" fill="url(#paint7_linear_1_13969)"/>
<path d="M94.2778 41.2982C95.2123 40.7682 96.2787 40.5534 97.333 40.4101C98.555 40.2526 99.837 40.181 100.963 40.668C102.089 41.1693 102.988 42.401 102.736 43.6328C102.569 44.4636 101.934 45.1224 101.191 45.5092C99.214 46.5404 94.2538 47.9727 92.6244 45.6381C91.606 44.2058 93.0438 42 94.2778 41.2982Z" fill="url(#paint8_linear_1_13969)"/>
<path d="M23.171 80.4427C25.1958 79.8984 27.3403 78.9817 28.4426 76.8476C28.5384 76.6614 28.6223 76.4752 28.6583 76.2603C28.7182 75.8736 28.6103 75.4869 28.4306 75.1431C27.0648 72.5077 22.3323 73.3384 20.4632 74.7707C19.4209 75.5728 17.1206 77.9505 17.7915 79.5976C18.5583 81.5026 21.9369 80.7721 23.171 80.4427Z" fill="url(#paint9_linear_1_13969)"/>
<path d="M132.665 35.726C133.552 35.3536 134.546 34.5658 134.439 33.4343C134.331 32.3458 133.264 31.8588 132.378 31.6296C130.796 31.2429 129.155 30.9851 127.585 31.4291C126.064 31.8588 122.877 34.1505 124.734 36.1127C126.411 37.8745 130.88 36.4994 132.665 35.726Z" fill="url(#paint10_linear_1_13969)"/>
<path d="M109.326 55.6638C109.242 55.8786 109.17 56.1221 109.194 56.3656C109.242 56.8096 109.625 57.0675 109.961 57.2393C113.136 58.8578 117.018 58.2276 119.737 55.6638C123.104 52.4841 119.989 49.4333 116.79 49.82C113.831 50.2067 110.584 52.2979 109.326 55.6638Z" fill="url(#paint11_linear_1_13969)"/>
<path d="M74.4977 69.4286C74.4139 69.6004 74.33 69.7866 74.342 69.9728C74.3659 70.3166 74.6415 70.5314 74.8931 70.6747C76.5824 71.6343 78.5713 71.8062 80.3564 71.176C81.7822 70.6747 83.9507 69.271 84.5737 67.4949C85.6999 64.2866 82.4171 63.6134 80.6799 64.2436C78.3077 65.103 75.8516 66.8791 74.4977 69.4286Z" fill="url(#paint12_linear_1_13969)"/>
<path d="M41.3699 86.9452C40.9865 87.3463 40.6031 87.8332 40.5911 88.4491C40.5791 89.0793 40.9865 89.6379 41.4657 89.8814C41.9449 90.1249 42.4841 90.0963 43.0112 90.039C44.6167 89.8528 46.1982 89.3085 47.6599 88.4491C48.7861 87.7759 49.8524 86.9022 50.5952 85.6848C52.2965 82.9204 48.4626 82.5051 47.1207 83.1353C45.1558 84.0233 42.9753 85.2837 41.3699 86.9452Z" fill="url(#paint13_linear_1_13969)"/>
<path d="M74.3779 87.5324C76.9059 88.6639 74.929 90.9127 73.3954 92.0442C71.3826 93.5194 68.7228 95.2239 66.3865 93.6913C65.476 93.1041 64.8171 91.7864 65.1286 90.5832C66.0032 87.1887 71.766 86.5298 74.1143 87.4035C74.1982 87.4465 74.294 87.4894 74.3779 87.5324Z" fill="url(#paint14_linear_1_13969)"/>
<path d="M106.642 69.6717C108.08 69.1417 109.589 68.9556 111.099 68.7837C111.446 68.7407 111.818 68.6977 112.153 68.8696C112.86 69.2134 113.064 70.4165 112.752 71.2616C112.441 72.1066 111.758 72.6652 111.099 73.1236C108.655 74.7994 105.863 75.7304 103.048 75.7733C99.07 75.8306 105.444 70.1157 106.642 69.6717Z" fill="url(#paint15_linear_1_13969)"/>
<path d="M100.412 91.1137C100.772 91.1854 101.191 91.3572 101.275 91.7869C101.311 92.0018 101.251 92.2166 101.179 92.4172C99.8492 96.1984 96.1471 98.4901 92.8404 97.5878C92.1694 97.4016 91.4386 96.9862 91.2828 96.1841C91.0911 95.1815 91.9058 94.3364 92.6247 93.7778C94.7333 92.1164 97.8604 90.6411 100.412 91.1137Z" fill="url(#paint16_linear_1_13969)"/>
<path d="M37.476 51.5104C40.5312 48.8893 37.3921 48.0013 35.1637 48.5169C33.1988 48.9753 31.2339 50.3646 29.916 52.069C29.4967 52.6133 29.1492 53.3008 29.1852 54.0313C29.3409 57.7983 36.4217 52.4128 37.476 51.5104Z" fill="url(#paint17_linear_1_13969)"/>
<path d="M77.3127 33.893C77.8159 33.3344 78.3191 32.5752 78.1514 31.7731C78.0675 31.3864 77.8399 31.0713 77.5763 30.8421C76.2584 29.6533 74.4133 30.3122 72.8798 31.014C71.1904 31.7875 64.4811 34.0792 68.8541 36.8578C71.4061 38.4763 75.4317 35.9555 77.3127 33.893Z" fill="url(#paint18_linear_1_13969)"/>
<path d="M113.22 25.0125C113.663 24.8263 114.107 24.5971 114.43 24.1817C114.754 23.7664 114.909 23.1218 114.682 22.6205C114.418 22.019 113.759 21.8901 113.184 21.8328C111.986 21.7182 110.788 21.5893 109.578 21.4747C107.948 21.3171 102.904 22.2625 105.564 25.2417C107.325 27.2039 111.327 25.8289 113.22 25.0125Z" fill="url(#paint19_linear_1_13969)"/>
<path d="M57.8682 24.8696C57.9041 24.6691 57.8922 24.4542 57.8442 24.225C57.6406 23.2941 56.718 22.6065 55.7595 22.5206C53.6269 22.3344 45.0366 25.4998 49.7091 27.7915C51.8657 28.8514 57.4608 27.6912 57.8682 24.8696Z" fill="url(#paint20_linear_1_13969)"/>
<path d="M90.8036 15.2588C90.9833 15.0726 91.163 14.8434 91.163 14.5569C91.163 14.0413 90.6119 13.8265 90.1926 13.7978C87.6166 13.5973 84.5256 14.3278 82.4648 16.3044C83.9864 19.1833 89.1742 16.9919 90.8036 15.2588Z" fill="url(#paint21_linear_1_13969)"/>
<path d="M71.0946 11.3196C71.3222 11.3626 71.5738 11.4342 71.7296 11.6061C71.9812 11.8782 71.9452 12.3509 71.7415 12.666C71.5379 12.9811 71.2024 13.1816 70.8789 13.3678C69.0937 14.3275 67.0809 14.8574 65.0681 14.8861C64.7446 14.8861 64.3972 14.8718 64.1456 14.6712C62.013 12.9525 69.9803 11.0905 71.0946 11.3196Z" fill="url(#paint22_linear_1_13969)"/>
<path d="M105.625 0.878378H104.99C105.145 0.878378 105.289 0.864054 105.445 0.849731C105.505 0.864054 105.565 0.878378 105.625 0.878378Z" fill="url(#paint23_linear_1_13969)"/>
<path d="M145.426 90.6978C144.815 92.8606 144.971 96.3124 143.868 98.0455C142.155 100.753 139.435 101.411 137.363 103.517C135.685 105.221 134.883 108.072 135.338 110.65C135.374 110.836 138.992 108.602 139.292 108.358C140.478 107.413 141.125 106.51 141.844 105.121C143.485 101.941 145.558 98.9336 147.69 96.1692C150.374 92.6887 150.53 89.4517 148.385 85.2837C147.007 86.6444 146.061 88.5637 145.45 90.5689C145.45 90.6119 145.438 90.6548 145.426 90.6978Z" fill="url(#paint24_linear_1_13969)"/>
<path d="M100.748 134.942C101.779 135.071 102.809 135.157 103.767 135.186C106.164 135.257 108.632 134.742 110.68 133.266C111.627 132.579 112.466 131.705 113.292 130.846C115.808 128.225 120.84 122.152 114.622 121.679C111.459 121.45 108.176 122.281 105.097 123.068C102.078 123.842 99.1068 124.83 96.1834 126.019C94.2186 126.821 91.2712 127.279 92.3615 130.516C93.5596 134.04 98.0764 134.598 100.748 134.942Z" fill="url(#paint25_linear_1_13969)"/>
<path d="M58.7309 138.595C59.7612 137.907 60.6598 136.661 60.5759 135.257C60.4681 133.438 58.8746 132.335 57.4489 131.648C55.1126 130.516 44.5454 127.695 46.3785 134.513C47.0135 136.862 49.3138 138.724 51.0151 139.841C53.5311 141.474 56.3107 140.199 58.7309 138.595Z" fill="url(#paint26_linear_1_13969)"/>
<defs>
<linearGradient id="paint0_linear_1_13969" x1="212.136" y1="86.7209" x2="46.1974" y2="94.6104" gradientUnits="userSpaceOnUse">
<stop stop-color="#FFD061"/>
<stop offset="1" stop-color="#CC5327"/>
</linearGradient>
<linearGradient id="paint1_linear_1_13969" x1="185.507" y1="105.947" x2="-36.2797" y2="83.6842" gradientUnits="userSpaceOnUse">
<stop stop-color="#FFD061"/>
<stop offset="1" stop-color="#CC5327"/>
</linearGradient>
<linearGradient id="paint2_linear_1_13969" x1="192.761" y1="75.7302" x2="39.9215" y2="96.6931" gradientUnits="userSpaceOnUse">
<stop stop-color="#BF9A73"/>
<stop offset="1" stop-color="#CF5224"/>
</linearGradient>
<linearGradient id="paint3_linear_1_13969" x1="176.887" y1="146.228" x2="31.4894" y2="128.996" gradientUnits="userSpaceOnUse">
<stop stop-color="#8F3333"/>
<stop offset="1" stop-color="#5E183D"/>
<stop offset="1" stop-color="#5E183D"/>
</linearGradient>
<linearGradient id="paint4_linear_1_13969" x1="210.569" y1="53.7499" x2="44.6301" y2="61.6394" gradientUnits="userSpaceOnUse">
<stop stop-color="#FFD061"/>
<stop offset="1" stop-color="#CC5327"/>
</linearGradient>
<linearGradient id="paint5_linear_1_13969" x1="121.328" y1="62.8464" x2="-161.529" y2="43.4193" gradientUnits="userSpaceOnUse">
<stop stop-color="#FFD061"/>
<stop offset="1" stop-color="#CC5327"/>
</linearGradient>
<linearGradient id="paint6_linear_1_13969" x1="187.755" y1="42.9932" x2="34.9155" y2="63.9561" gradientUnits="userSpaceOnUse">
<stop stop-color="#BF9A73"/>
<stop offset="1" stop-color="#CD532A"/>
</linearGradient>
<linearGradient id="paint7_linear_1_13969" x1="144.284" y1="121.307" x2="-26.9097" y2="39.4076" gradientUnits="userSpaceOnUse">
<stop stop-color="#FFD061"/>
<stop offset="1" stop-color="#CC5327"/>
</linearGradient>
<linearGradient id="paint8_linear_1_13969" x1="160.719" y1="86.9514" x2="-10.4743" y2="5.05138" gradientUnits="userSpaceOnUse">
<stop stop-color="#FFD061"/>
<stop offset="1" stop-color="#CC5327"/>
</linearGradient>
<linearGradient id="paint9_linear_1_13969" x1="130.259" y1="150.622" x2="-40.9345" y2="68.722" gradientUnits="userSpaceOnUse">
<stop stop-color="#FFD061"/>
<stop offset="1" stop-color="#CC5327"/>
</linearGradient>
<linearGradient id="paint10_linear_1_13969" x1="171.973" y1="63.4296" x2="0.779298" y2="-18.4702" gradientUnits="userSpaceOnUse">
<stop stop-color="#FFD061"/>
<stop offset="1" stop-color="#CC5327"/>
</linearGradient>
<linearGradient id="paint11_linear_1_13969" x1="161.337" y1="85.66" x2="-9.8566" y2="3.76004" gradientUnits="userSpaceOnUse">
<stop stop-color="#FFD061"/>
<stop offset="1" stop-color="#CC5327"/>
</linearGradient>
<linearGradient id="paint12_linear_1_13969" x1="147.642" y1="114.289" x2="-23.5517" y2="32.3891" gradientUnits="userSpaceOnUse">
<stop stop-color="#FFD061"/>
<stop offset="1" stop-color="#CC5327"/>
</linearGradient>
<linearGradient id="paint13_linear_1_13969" x1="132.552" y1="145.829" x2="-38.6413" y2="63.929" gradientUnits="userSpaceOnUse">
<stop stop-color="#FFD061"/>
<stop offset="1" stop-color="#CC5327"/>
</linearGradient>
<linearGradient id="paint14_linear_1_13969" x1="137.144" y1="136.231" x2="-34.0499" y2="54.3311" gradientUnits="userSpaceOnUse">
<stop stop-color="#FFD061"/>
<stop offset="1" stop-color="#CC5327"/>
</linearGradient>
<linearGradient id="paint15_linear_1_13969" x1="152.816" y1="103.471" x2="-18.3778" y2="21.5711" gradientUnits="userSpaceOnUse">
<stop stop-color="#FFD061"/>
<stop offset="1" stop-color="#CC5327"/>
</linearGradient>
<linearGradient id="paint16_linear_1_13969" x1="142.249" y1="125.56" x2="-28.9448" y2="43.66" gradientUnits="userSpaceOnUse">
<stop stop-color="#FFD061"/>
<stop offset="1" stop-color="#CC5327"/>
</linearGradient>
<linearGradient id="paint17_linear_1_13969" x1="142.087" y1="125.899" x2="-29.1076" y2="43.9992" gradientUnits="userSpaceOnUse">
<stop stop-color="#FFD061"/>
<stop offset="1" stop-color="#CC5327"/>
</linearGradient>
<linearGradient id="paint18_linear_1_13969" x1="158.301" y1="92.0069" x2="-12.8931" y2="10.1069" gradientUnits="userSpaceOnUse">
<stop stop-color="#FFD061"/>
<stop offset="1" stop-color="#CC5327"/>
</linearGradient>
<linearGradient id="paint19_linear_1_13969" x1="170.986" y1="65.4916" x2="-0.2074" y2="-16.408" gradientUnits="userSpaceOnUse">
<stop stop-color="#FFD061"/>
<stop offset="1" stop-color="#CC5327"/>
</linearGradient>
<linearGradient id="paint20_linear_1_13969" x1="156.438" y1="95.9056" x2="-14.7575" y2="14.0051" gradientUnits="userSpaceOnUse">
<stop stop-color="#FFD061"/>
<stop offset="1" stop-color="#CC5327"/>
</linearGradient>
<linearGradient id="paint21_linear_1_13969" x1="168.283" y1="71.1423" x2="-2.91064" y2="-10.7573" gradientUnits="userSpaceOnUse">
<stop stop-color="#FFD061"/>
<stop offset="1" stop-color="#CC5327"/>
</linearGradient>
<linearGradient id="paint22_linear_1_13969" x1="164.466" y1="79.1219" x2="-6.7288" y2="-2.77873" gradientUnits="userSpaceOnUse">
<stop stop-color="#FFD061"/>
<stop offset="1" stop-color="#CC5327"/>
</linearGradient>
<linearGradient id="paint23_linear_1_13969" x1="105.547" y1="1.03622" x2="105.03" y2="0.789041" gradientUnits="userSpaceOnUse">
<stop stop-color="#FFD061"/>
<stop offset="1" stop-color="#CC5327"/>
</linearGradient>
<linearGradient id="paint24_linear_1_13969" x1="197.235" y1="181.377" x2="94.3193" y2="72.9015" gradientUnits="userSpaceOnUse">
<stop stop-color="#BF9A73"/>
<stop offset="1" stop-color="#9C5457"/>
</linearGradient>
<linearGradient id="paint25_linear_1_13969" x1="162.769" y1="214.076" x2="59.8539" y2="105.601" gradientUnits="userSpaceOnUse">
<stop stop-color="#BF9A73"/>
<stop offset="1" stop-color="#72203D"/>
</linearGradient>
<linearGradient id="paint26_linear_1_13969" x1="128.016" y1="247.048" x2="25.1007" y2="138.573" gradientUnits="userSpaceOnUse">
<stop stop-color="#BF9A73"/>
<stop offset="1" stop-color="#712A47"/>
</linearGradient>
</defs>
</svg>
