<svg width="157" height="158" viewBox="0 0 157 158" fill="none" xmlns="http://www.w3.org/2000/svg">
<path d="M153.691 106.004C147 113.046 137.544 112.716 129.564 113.964C124.699 114.71 119.812 115.312 114.915 115.757C114.598 115.785 113.974 115.785 113.165 115.771C112.16 115.757 110.848 115.728 109.47 115.714C105.71 115.671 101.37 115.757 100.9 116.674C99.2927 119.83 97.6419 122.942 95.9365 126.011L95.9255 126.025C95.3461 127.101 94.7339 128.162 94.1217 129.223C93.6189 130.127 93.1051 131.002 92.5803 131.891C91.9681 132.952 91.345 133.999 90.7 135.046C88.8197 138.173 86.8956 141.256 84.9169 144.282C82.009 148.728 78.784 153.217 74.761 155.956C69.9509 159.241 66.868 158.538 62.7903 154.049C54.3398 144.712 48.032 132.049 42.6753 119.055C42.1724 117.85 41.6804 116.617 41.1994 115.398C40.3139 113.204 39.4722 110.995 38.6304 108.815C31.8525 107.524 25.1292 105.818 18.4825 103.71C12.5136 101.816 6.09643 100.769 1.71265 94.746C0.936474 93.6847 0.193082 92.4656 0.0290999 91.0028C-0.0911533 89.8268 0.182176 88.6507 0.466411 87.5321C0.61946 86.9441 0.783422 86.3417 0.958336 85.7537C1.54867 83.7029 2.24834 81.6807 3.02452 79.7159C9.64938 62.8787 22.3853 49.3258 34.2576 38.6986C34.2904 38.6699 34.3341 38.6269 34.3559 38.5982C34.4434 37.6086 34.5418 36.6047 34.662 35.6008C35.788 25.7481 38.4227 15.3216 41.4727 6.42977C42.1068 4.5797 42.8283 2.67225 44.0746 1.46755C45.9549 -0.339508 48.5239 -0.110037 50.8415 0.305872C62.6045 2.45713 74.0395 7.57711 84.3484 15.3073C95.204 9.47022 107.317 7.59146 118.981 6.24334C123.584 5.71269 128.219 5.19639 132.811 5.85611C133.674 5.98519 134.592 6.17162 135.248 6.91739C135.259 6.93173 135.281 6.94608 135.292 6.96042C135.533 7.23291 135.707 7.53409 135.861 7.89263C136.123 8.4663 136.287 9.11167 136.429 9.74271C140.026 25.1314 137.697 41.7247 134.505 57.2998C134.396 57.8448 134.264 58.4184 134.155 58.9634C134.341 59.1499 134.527 59.3363 134.724 59.5228C135.095 59.8956 135.467 60.2829 135.85 60.6844C140.518 65.6036 145.831 72.3442 149.351 78.0522C151.526 81.5946 154.347 86.2844 155.877 91.0745C157.572 96.3666 157.703 101.802 153.691 106.004Z" fill="url(#paint0_linear_1_14007)"/>
<path d="M153.691 106.005C147 113.046 137.544 112.716 129.564 113.964C124.699 114.71 119.812 115.312 114.915 115.757C113.1 115.929 101.687 115.14 100.9 116.689C96.0022 126.298 90.6673 135.52 84.9389 144.283C82.0309 148.728 78.806 153.217 74.783 155.957C69.9728 159.241 66.89 158.538 62.8123 154.049C52.1316 142.275 44.8946 125.179 38.6523 108.815C31.8744 107.525 25.1512 105.818 18.5045 103.71C12.5355 101.817 6.1184 100.77 1.73463 94.7463C0.958449 93.685 0.215057 92.4659 0.051075 91.0031C-0.0691782 89.8271 0.204118 88.651 0.488353 87.5324C0.641402 86.9444 0.805397 86.342 0.980311 85.754C1.57064 86.9587 2.46708 87.9483 3.44004 88.6224C4.98146 89.6693 6.71967 90.0422 8.42507 90.372C16.9521 91.9783 25.5994 92.6094 34.203 92.1791C39.4722 91.921 43.3203 91.376 45.6707 98.2743C50.5246 112.573 55.138 129.166 64.4084 139.277C72.7387 148.356 81.3204 136.208 86.852 128.105C89.749 123.86 92.482 119.199 94.9527 114.495C97.5436 109.59 100.845 105.33 104.125 101.229C106.246 98.5755 110.083 99.3643 112.849 99.2065C116.544 99.0058 120.271 98.9484 123.977 98.9484C131.4 98.9484 138.823 99.2065 146.257 99.1922C148.072 99.1922 149.941 99.1492 151.625 98.2456C153.866 97.0409 155.44 94.2013 155.899 91.1035C157.572 96.3669 157.703 101.802 153.691 106.005Z" fill="#490828"/>
<path d="M134.177 58.9784C134.363 59.1648 134.549 59.3513 134.745 59.5377C132.231 58.4764 130.132 55.5794 129.487 52.2378C128.809 48.7528 129.553 45.0813 130.252 41.6106C132.57 30.2233 134.647 18.6495 135.27 6.91803C135.281 6.93237 135.303 6.94672 135.314 6.96106C135.926 7.6638 136.21 8.72509 136.451 9.74335C140.19 25.6913 137.555 42.9157 134.177 58.9784Z" fill="#490828"/>
<path d="M135.883 7.89299C129.17 8.00773 122.48 8.50969 115.811 9.38453C106.989 10.5462 96.0789 11.0051 87.8689 15.3794C87.0927 15.7953 86.2947 16.1968 85.4638 16.2972C83.9661 16.4406 82.545 15.5515 81.1784 14.734C70.5196 8.3089 59.0081 4.33625 47.3326 3.05984C46.7205 2.98813 46.0427 2.94511 45.5289 3.40405C45.0806 3.79127 44.8401 4.46533 44.6324 5.11071C41.4402 14.8487 39.1226 25.06 37.7452 35.4864C37.5484 36.9923 37.3516 38.5556 36.7176 39.8463C36.1054 41.094 35.1215 41.9545 34.1813 42.8007C25.8401 50.2871 18.1877 59.0929 11.4316 68.96C8.82977 72.7462 6.32633 76.7332 3.13415 79.6158C3.11229 79.6445 3.07948 79.6589 3.05762 79.6876C9.70434 62.8074 22.484 49.2114 34.389 38.5842C35.2855 27.8853 38.1497 16.2255 41.5058 6.4158C42.1399 4.56572 42.8614 2.65828 44.1077 1.45357C45.988 -0.353481 48.557 -0.124016 50.8746 0.291894C62.6376 2.44315 74.0726 7.56313 84.3815 15.2933C95.2371 9.45624 107.35 7.57748 119.014 6.22936C123.617 5.69871 128.252 5.18241 132.844 5.84213C133.707 5.97121 134.626 6.15765 135.281 6.90342C135.292 6.91776 135.314 6.9321 135.325 6.94644C135.555 7.23328 135.741 7.54879 135.883 7.89299Z" fill="url(#paint1_linear_1_14007)"/>
<path d="M111.876 52.5528C110.662 62.9792 106.552 82.2258 96.0899 79.4292C84.8517 76.4174 74.7176 66.579 65.316 58.5333C60.6699 54.5607 56.0019 50.6167 51.0496 47.3181C45.7366 43.79 39.9863 42.1694 34.6405 38.9856C34.4984 38.8995 34.3891 38.7991 34.2798 38.6844C34.3126 38.6557 34.3563 38.6127 34.3782 38.584C34.4656 37.5944 34.564 36.5905 34.6843 35.5866C34.9029 35.3858 35.1434 35.2567 35.4058 35.228C43.7579 34.0664 53.1049 41.3663 59.9812 46.7731C68.0272 53.1121 75.5922 60.5125 83.8788 66.3352C88.2844 69.433 96.3523 75.9728 101.239 71.5843C102.813 70.1788 104.081 65.446 104.847 63.1513C105.94 59.8671 106.749 56.4824 107.306 52.9687C109.515 38.9282 107 25.7338 101.206 13.8015C99.6757 10.6607 103.338 8.03618 104.934 10.9332C111.384 22.6647 113.527 38.4406 111.876 52.5528Z" fill="#490828"/>
<path d="M38.4444 22.4927C41.4617 25.3754 45.7034 25.3897 49.3219 26.0924C53.9353 26.996 58.5158 27.8278 63.0854 29.1329C71.8967 31.6427 80.5659 34.5397 88.9836 38.8135C89.7707 39.2151 90.7218 38.541 91.1372 37.6662C94.4496 30.6818 95.5866 22.7508 94.0123 14.7338C93.4876 12.0949 90.6343 13.2566 90.9514 15.8381C91.815 22.8799 90.8748 29.1903 87.8466 35.1421C88.7103 34.8409 89.5849 34.5397 90.4485 34.2529C81.7793 29.2333 72.9024 24.687 63.6101 22.0481C56.7557 20.112 44.8944 15.3792 38.4444 20.3127C37.7776 20.829 37.876 21.9477 38.4444 22.4927Z" fill="#490828"/>
<path d="M135.872 60.6988C135.795 61.6024 135.467 62.4628 134.811 63.0365C127.509 69.5046 122.37 75.6859 118.861 86.6286C116.992 92.4227 115.789 98.5322 114.838 104.685C114.27 108.342 114.15 112.286 113.166 115.757C112.16 115.742 110.848 115.714 109.471 115.699C108.968 110.45 110.345 104.441 111.11 99.5361C112.105 93.1254 113.505 86.8151 115.614 80.8633C118.982 71.326 125.049 60.6415 132.975 57.2568C133.576 56.9987 134.112 57.0417 134.549 57.2998C134.44 57.8448 134.308 58.4185 134.199 58.9635C134.385 59.1499 134.571 59.3364 134.767 59.5228C135.117 59.9244 135.489 60.3116 135.872 60.6988Z" fill="#490828"/>
<path d="M95.9259 126.012C95.3356 127.102 94.7234 128.163 94.1112 129.224C93.6084 130.128 93.0945 131.003 92.5698 131.892C92.5151 131.705 92.5261 131.49 92.5917 131.275C92.7447 130.701 92.8649 130.099 92.9524 129.482C94.2642 120.662 88.8529 108.83 85.5076 101.961C81.0036 92.7245 74.7177 85.1091 67.6555 79.3007C60.3638 73.2772 52.2959 69.0894 43.9984 66.1063C35.7338 63.1663 27.152 62.191 18.8874 59.337C17.0071 58.6916 17.663 55.5221 19.3028 55.2496C29.3166 53.6147 40.1175 57.1714 49.6175 61.1584C58.7786 65.002 67.6227 70.4518 75.2971 78.139C85.2562 88.1065 98.2763 107.898 95.9259 126.012Z" fill="#490828"/>
<path d="M94.1109 129.224C93.6081 130.128 93.0942 131.002 92.5695 131.892C91.9573 132.953 91.3342 134 90.6892 135.047C89.9567 134.789 89.2133 134.301 88.4809 133.613C83.6598 129.167 80.249 124.52 74.4878 121.867C68.6828 119.185 62.4953 118.339 56.3733 118.339C51.8146 118.353 47.2231 119.257 42.6863 119.056C42.1834 117.851 41.6915 116.618 41.2104 115.399C46.9389 113.362 53.4872 113.434 59.2922 113.663C64.7582 113.893 70.3008 114.868 75.4826 117.206C80.3146 119.4 84.7749 122.641 88.5793 127.13C89.9786 128.794 90.7001 129.41 92.6679 129.554C92.7553 129.568 92.8647 129.54 92.963 129.482C93.3129 129.353 93.6955 128.98 94.0781 129.195C94.0781 129.21 94.1 129.21 94.1109 129.224Z" fill="#490828"/>
<path d="M34.2245 35.8165C39.5594 39.0004 45.3315 40.621 50.6336 44.149C55.5859 47.4333 60.2539 51.3916 64.9 55.3642C74.3016 63.4099 84.4357 73.2483 95.6739 76.2601C106.136 79.0567 110.257 59.8245 111.471 49.3838C113.111 35.2715 110.979 19.4956 104.529 7.77848C102.933 4.88145 99.2706 7.50599 100.801 10.6468C106.595 22.5648 109.109 35.7735 106.901 49.814C106.355 53.3134 105.535 56.7124 104.441 59.9823C103.676 62.2769 102.419 67.0097 100.845 68.4152C95.9472 72.8037 87.8903 66.2639 83.4846 63.1661C75.1981 57.3434 67.633 49.9431 59.587 43.604C52.7216 38.1972 43.3747 30.8973 35.0226 32.0446C33.6779 32.2454 32.6831 34.8986 34.2245 35.8165Z" fill="url(#paint2_linear_1_14007)"/>
<path d="M38.0397 19.3093C41.0569 22.192 45.2986 22.2063 48.9171 22.909C53.5304 23.8126 58.111 24.6444 62.6806 25.9495C71.4919 28.4593 80.161 31.3563 88.5788 35.6301C89.3659 36.0317 90.317 35.3576 90.7324 34.4828C94.0448 27.4984 95.1818 19.5674 93.6075 11.5504C93.0828 8.91153 90.2295 10.0732 90.5466 12.6547C91.4102 19.6965 90.4701 26.0068 87.4419 31.9586C88.3055 31.6575 89.1801 31.3563 90.0437 31.0695C81.3745 26.0499 72.4977 21.5035 63.2054 18.8647C56.3509 16.9285 44.4896 12.1958 38.0397 17.1293C37.3728 17.6456 37.4712 18.7643 38.0397 19.3093Z" fill="url(#paint3_linear_1_14007)"/>
<path d="M111.427 115.886C113.701 111.77 113.668 106.378 114.422 101.516C115.373 95.3631 116.598 89.2536 118.456 83.4595C121.976 72.5168 127.104 66.3355 134.406 59.8674C136.549 57.9743 135.281 52.9404 132.559 54.1021C124.633 57.4867 118.577 68.1713 115.199 77.7085C113.089 83.6603 111.689 89.9563 110.695 96.3814C109.776 102.262 107.983 109.748 109.59 115.571C109.886 116.704 110.902 116.833 111.427 115.886Z" fill="url(#paint4_linear_1_14007)"/>
<path d="M18.4822 56.1533C26.7469 59.0217 35.3177 59.9826 43.5824 62.9369C51.8798 65.9057 59.9477 70.0935 67.2504 76.117C74.3016 81.9397 80.5875 89.5408 85.1025 98.7912C88.6882 106.134 94.6244 119.142 92.1975 128.106C91.8148 129.497 93.5639 130.486 94.045 129.124C100.965 109.504 86.0317 86.1131 74.9029 74.9553C67.2285 67.2681 58.3844 61.8326 49.2233 57.9891C39.7233 54.0021 28.9224 50.4597 18.9086 52.0946C17.2469 52.3384 16.6019 55.5079 18.4822 56.1533Z" fill="url(#paint5_linear_1_14007)"/>
<path d="M39.1661 115.542C44.7197 116.532 50.3715 115.169 55.9578 115.169C62.0908 115.169 68.2674 116.001 74.0833 118.683C79.8554 121.351 83.2553 125.983 88.0764 130.429C89.5413 131.777 91.8042 132.881 93.4878 131.447C95.0292 130.128 95.4228 126.485 95.4228 124.219C94.8543 124.076 94.2093 123.961 93.7611 124.434C92.5914 125.682 92.7553 126.729 90.9625 126.155C89.8474 125.797 89.0056 124.936 88.1639 123.947C84.3595 119.443 79.8992 116.216 75.0672 114.022C69.8854 111.67 64.3428 110.695 58.8767 110.465C52.5142 110.207 45.2663 110.136 39.1771 112.846C38.2916 113.262 38.0511 115.342 39.1661 115.542Z" fill="url(#paint6_linear_1_14007)"/>
<defs>
<linearGradient id="paint0_linear_1_14007" x1="64.3278" y1="18.462" x2="136.062" y2="238.734" gradientUnits="userSpaceOnUse">
<stop stop-color="#8F3333"/>
<stop offset="1" stop-color="#4C0D43"/>
</linearGradient>
<linearGradient id="paint1_linear_1_14007" x1="-13.1654" y1="-43.597" x2="149.814" y2="56.3769" gradientUnits="userSpaceOnUse">
<stop stop-color="#99553C"/>
<stop offset="1"/>
</linearGradient>
<linearGradient id="paint2_linear_1_14007" x1="57.7572" y1="-9.68599" x2="164.926" y2="157.522" gradientUnits="userSpaceOnUse">
<stop stop-color="#FFEAAD"/>
<stop offset="0.5342" stop-color="#FBB481"/>
<stop offset="1" stop-color="#F78157"/>
</linearGradient>
<linearGradient id="paint3_linear_1_14007" x1="56.6735" y1="-8.99165" x2="163.842" y2="158.216" gradientUnits="userSpaceOnUse">
<stop stop-color="#FFEAAD"/>
<stop offset="0.5342" stop-color="#FBB481"/>
<stop offset="1" stop-color="#F78157"/>
</linearGradient>
<linearGradient id="paint4_linear_1_14007" x1="81.2997" y1="-24.7753" x2="188.468" y2="142.433" gradientUnits="userSpaceOnUse">
<stop stop-color="#FFEAAD"/>
<stop offset="0.5342" stop-color="#FBB481"/>
<stop offset="1" stop-color="#F78157"/>
</linearGradient>
<linearGradient id="paint5_linear_1_14007" x1="28.9935" y1="8.74956" x2="136.162" y2="175.958" gradientUnits="userSpaceOnUse">
<stop stop-color="#FFEAAD"/>
<stop offset="0.5342" stop-color="#FBB481"/>
<stop offset="1" stop-color="#F78157"/>
</linearGradient>
<linearGradient id="paint6_linear_1_14007" x1="26.3041" y1="10.4062" x2="133.538" y2="177.716" gradientUnits="userSpaceOnUse">
<stop stop-color="#FFEAAD"/>
<stop offset="0.5342" stop-color="#FBB481"/>
<stop offset="1" stop-color="#F78157"/>
</linearGradient>
</defs>
</svg>
