<svg width="159" height="160" viewBox="0 0 159 160" fill="none" xmlns="http://www.w3.org/2000/svg">
<path d="M106.863 138.47C106.863 138.47 120.956 137.214 121.629 128.936C122.283 120.658 102.723 77.0352 79.6031 57.752C56.483 38.4512 33.631 20.4446 26.6433 32.2699C20.3038 42.9851 32.7895 91.0918 53.6315 109.345C74.4731 127.564 96.8464 137.391 106.863 138.47Z" fill="url(#paint0_radial_1_123)"/>
<path d="M123.032 120.441C123.032 120.441 134.692 117.193 136.974 108.865C139.238 100.554 142.462 57.8352 122.63 34.0694C102.797 10.3036 72.8677 -7.47766 69.7071 4.74923C66.5465 16.9761 68.5366 59.7331 86.2515 82.0296C103.948 104.309 113.017 117.575 123.032 120.441Z" fill="url(#paint1_radial_1_123)"/>
<path d="M119.638 140.978C119.638 140.978 131.031 136.558 131.752 127.649C132.456 118.74 127.426 73.7162 102.313 50.5616C77.1991 27.3895 42.8225 11.3856 41.9566 24.4668C41.0907 37.548 51.5131 82.152 74.1445 103.963C96.8121 125.739 108.752 138.838 119.638 140.978Z" fill="url(#paint2_radial_1_123)"/>
<path d="M140.744 142.422C140.744 142.422 128.838 154.505 119.099 153.827C109.361 153.149 64.1583 129.713 38.2269 107.127C11.0415 83.4666 2.41383 46.924 16.6756 48.102C30.9371 49.2625 83.7271 62.4093 102.02 87.8545C120.313 113.317 140.935 131.468 140.744 142.422Z" fill="url(#paint3_radial_1_123)"/>
<path opacity="0.2" d="M24.5037 55.7557C34.4986 58.429 44.1002 62.0699 53.4862 66.1509C62.8545 70.2847 71.9899 74.9464 80.7652 80.2249C89.5403 85.4859 97.9553 91.3636 105.719 98.0011C113.428 104.657 120.613 112.071 125.961 120.606C118.108 114.127 110.15 108.21 101.865 102.629C93.6176 97.0302 85.1535 91.7663 76.5804 86.591C68.0075 81.4333 59.3261 76.4167 50.5896 71.3657C41.9076 66.2791 33.1166 61.2811 24.5037 55.7557Z" fill="#FFA8C0"/>
<path d="M145.671 139.046C148.522 132.833 146.367 121.463 145.957 112.775C145.546 104.087 130.64 74.9645 108.364 48.1203C69.6959 1.50798 58.7184 9.21828 58.1094 24.3473C57.3674 42.8772 58.9799 74.5627 82.8754 106.386C104.104 134.677 132.923 166.768 145.671 139.046Z" fill="url(#paint4_radial_1_123)"/>
<path d="M7.44034 68.0804C1.42716 68.6635 -1.24249 74.6823 2.22565 79.7486C14.4656 97.5762 42.4717 134.705 73.9277 151.385C98.3792 164.364 139.78 158.729 143.715 141.308C145.526 133.387 88.3345 60.1927 7.44034 68.0804Z" fill="url(#paint5_radial_1_123)"/>
<path opacity="0.2" d="M20.4338 84.3937C28.2947 91.6612 35.9897 98.8075 44.1005 105.407C52.1749 112.041 60.5924 118.182 69.4419 123.582C78.3098 128.983 87.628 133.625 97.448 137.159C107.268 140.727 117.608 143.064 128.466 144.187C117.71 146.218 106.361 145.415 95.5981 142.801C84.8166 140.136 74.5667 135.625 65.2204 129.931C55.8557 124.22 47.3764 117.327 39.8412 109.671C32.3606 101.979 25.6964 93.5611 20.4338 84.3937Z" fill="#FFA8C0"/>
<path opacity="0.2" d="M31.4993 82.0972C41.0123 86.0544 49.9674 90.9982 58.7949 95.9958C67.5862 101.029 76.214 106.186 84.9662 110.957C93.7185 115.727 102.613 120.093 111.921 123.649C121.212 127.276 130.896 129.987 140.98 132.396C130.614 133.126 120.084 131.895 109.961 129.241C99.8198 126.569 90.1223 122.438 81.0938 117.477C72.0288 112.517 63.5425 106.833 55.3645 100.865C47.1861 94.8625 39.2441 88.6999 31.4993 82.0972Z" fill="#FFA8C0"/>
<path d="M89.8455 8.35893C91.7905 3.10068 100.69 0.106653 104.845 4.3428C119.491 19.256 146.214 56.0638 155.383 87.9224C162.511 112.686 154.605 145.777 136.674 145.422C128.532 145.255 63.7949 78.9666 89.8455 8.35893Z" fill="url(#paint6_radial_1_123)"/>
<path opacity="0.2" d="M111.362 18.5283C117.262 27.3917 122.851 36.2404 128.205 45.3543C133.485 54.4689 138.403 63.955 142.028 74.0492C145.671 84.1082 147.874 94.7943 148.12 105.464C148.347 116.152 146.745 126.769 143.344 136.755C143.502 126.239 143.388 115.971 141.977 105.908C140.639 95.8448 138.06 86.0735 134.623 76.4857C131.204 66.8977 126.928 57.4931 122.704 47.9303C118.481 38.3851 114.274 28.6819 111.362 18.5283Z" fill="#FFA8C0"/>
<path opacity="0.2" d="M90.2332 36.2366C96.5562 43.3785 102.623 50.558 108.51 57.9845C114.342 65.429 119.866 73.2445 124.354 81.7358C128.842 90.2095 132.147 99.3781 133.698 108.809C135.25 118.222 135.174 127.791 133.413 137.025C132.228 127.714 130.827 118.65 128.312 109.912C125.853 101.173 122.354 92.83 118.108 84.757C113.861 76.684 108.904 68.8631 103.964 60.9018C99.0235 52.9406 94.082 44.8566 90.2332 36.2366Z" fill="#FFA8C0"/>
<defs>
<radialGradient id="paint0_radial_1_123" cx="0" cy="0" r="1" gradientUnits="userSpaceOnUse" gradientTransform="translate(19.2543 9.5996) rotate(-45.5923) scale(46.3729 79.8861)">
<stop stop-color="#FFDDE7"/>
<stop offset="0.1298" stop-color="#FDD7E2"/>
<stop offset="0.3053" stop-color="#F6C6D4"/>
<stop offset="0.5071" stop-color="#EBA9BD"/>
<stop offset="0.7284" stop-color="#DB829C"/>
<stop offset="0.9631" stop-color="#C75073"/>
<stop offset="1" stop-color="#C4476C"/>
</radialGradient>
<radialGradient id="paint1_radial_1_123" cx="0" cy="0" r="1" gradientUnits="userSpaceOnUse" gradientTransform="translate(69.4553 -4.20608) rotate(-35.3781) scale(47.1001 80.0053)">
<stop stop-color="#FFDDE7"/>
<stop offset="0.3328" stop-color="#E7A0B5"/>
<stop offset="0.6377" stop-color="#D4708E"/>
<stop offset="0.8691" stop-color="#C85275"/>
<stop offset="1" stop-color="#C4476C"/>
</radialGradient>
<radialGradient id="paint2_radial_1_123" cx="0" cy="0" r="1" gradientUnits="userSpaceOnUse" gradientTransform="translate(22.1512 17.447) rotate(-42.9413) scale(36.6915 69.1838)">
<stop stop-color="#FFDDE7"/>
<stop offset="0.2179" stop-color="#EDB0C2"/>
<stop offset="0.4667" stop-color="#DB839D"/>
<stop offset="0.6891" stop-color="#CF6282"/>
<stop offset="0.8744" stop-color="#C74E72"/>
<stop offset="1" stop-color="#C4476C"/>
</radialGradient>
<radialGradient id="paint3_radial_1_123" cx="0" cy="0" r="1" gradientUnits="userSpaceOnUse" gradientTransform="translate(19.2984 26.6409) rotate(-45.4972) scale(59.6561 91.2546)">
<stop stop-color="#FFDDE7"/>
<stop offset="0.1884" stop-color="#F2BCCC"/>
<stop offset="0.5725" stop-color="#D97D98"/>
<stop offset="0.8537" stop-color="#CA5678"/>
<stop offset="1" stop-color="#C4476C"/>
</radialGradient>
<radialGradient id="paint4_radial_1_123" cx="0" cy="0" r="1" gradientUnits="userSpaceOnUse" gradientTransform="translate(30.6669 25.8512) rotate(-47.3387) scale(50.8828 106.273)">
<stop stop-color="#FFDDE7"/>
<stop offset="0.2122" stop-color="#F4C2D1"/>
<stop offset="0.6653" stop-color="#D97D99"/>
<stop offset="1" stop-color="#C4476C"/>
</radialGradient>
<radialGradient id="paint5_radial_1_123" cx="0" cy="0" r="1" gradientUnits="userSpaceOnUse" gradientTransform="translate(47.5561 89.6208) rotate(-47.6457) scale(54.0064 118.007)">
<stop stop-color="#FFDDE7"/>
<stop offset="0.1469" stop-color="#F9CEDB"/>
<stop offset="0.4298" stop-color="#EAA7BA"/>
<stop offset="0.8166" stop-color="#D16787"/>
<stop offset="1" stop-color="#C4476C"/>
</radialGradient>
<radialGradient id="paint6_radial_1_123" cx="0" cy="0" r="1" gradientUnits="userSpaceOnUse" gradientTransform="translate(87.8319 31.4261) rotate(-23.1545) scale(70.3693 122.317)">
<stop stop-color="#FFDDE7"/>
<stop offset="0.1327" stop-color="#FDD7E2"/>
<stop offset="0.3052" stop-color="#F6C7D5"/>
<stop offset="0.4997" stop-color="#ECACBF"/>
<stop offset="0.7103" stop-color="#DD87A0"/>
<stop offset="0.9316" stop-color="#CA5779"/>
<stop offset="1" stop-color="#C4476C"/>
</radialGradient>
</defs>
</svg>
