<svg width="159" height="164" viewBox="0 0 159 164" fill="none" xmlns="http://www.w3.org/2000/svg">
<path d="M51.607 141.561C51.607 141.561 37.5145 140.28 36.8434 131.817C36.1905 123.354 55.7598 78.7492 78.8838 59.029C102.008 39.2909 124.864 20.876 131.849 32.9648C138.186 43.9186 125.691 93.1057 104.845 111.773C83.9993 130.404 61.6239 140.456 51.607 141.561Z" fill="url(#paint0_radial_1_143)"/>
<path d="M35.4415 123.132C35.4415 123.132 23.7828 119.814 21.5023 111.299C19.2399 102.803 16.0249 59.1276 35.8622 34.8252C55.6995 10.5228 85.6328 -7.66325 88.7909 4.83687C91.9489 17.337 89.9499 61.0523 72.2303 83.852C54.5292 106.634 45.4572 120.2 35.4415 123.132Z" fill="url(#paint1_radial_1_143)"/>
<path d="M38.8309 144.128C38.8309 144.128 27.4395 139.611 26.7195 130.503C26.0178 121.395 31.0569 75.3612 56.1753 51.6826C81.2938 27.986 115.674 11.6163 116.537 24.9903C117.4 38.3643 106.968 83.9698 84.3325 106.275C61.6603 128.543 49.7178 141.938 38.8309 144.128Z" fill="url(#paint2_radial_1_143)"/>
<path d="M17.7248 145.609C17.7248 145.609 29.6286 157.96 39.3673 157.265C49.106 156.569 94.3135 132.599 120.25 109.501C147.44 85.3051 156.075 47.9419 141.813 49.1494C127.552 50.339 74.7588 63.7915 56.4604 89.8107C38.1619 115.848 17.5365 134.409 17.7248 145.609Z" fill="url(#paint3_radial_1_143)"/>
<path opacity="0.2" d="M133.984 56.9764C123.989 59.7118 114.386 63.4363 104.999 67.6107C95.6301 71.8391 86.4938 76.6072 77.7174 82.0058C68.9411 87.3865 60.5249 93.3977 52.76 100.186C45.0498 106.992 37.8629 114.574 32.513 123.302C40.3678 116.676 48.3271 110.624 56.6125 104.917C64.8614 99.1904 73.3267 93.8067 81.9008 88.5137C90.4749 83.2385 99.1573 78.1078 107.895 72.9417C116.578 67.7393 125.37 62.6274 133.984 56.9764Z" fill="#FFA8C0"/>
<path d="M12.7989 142.158C9.94939 135.807 12.1066 124.181 12.5187 115.299C12.9308 106.416 27.8433 76.6378 50.1248 49.1875C88.8028 1.5227 99.7787 9.40338 100.385 24.8712C101.123 43.8161 99.5035 76.2117 75.6014 108.753C54.3672 137.682 25.5415 170.499 12.7989 142.158Z" fill="url(#paint4_radial_1_143)"/>
<path d="M151.045 69.5733C157.058 70.1682 159.726 76.3212 156.257 81.5018C144.013 99.7314 115.999 137.698 84.5398 154.758C60.0855 168.034 18.6857 162.281 14.754 144.47C12.9452 136.373 70.152 61.5262 151.045 69.5733Z" fill="url(#paint5_radial_1_143)"/>
<path opacity="0.2" d="M138.048 86.2548C130.185 93.6867 122.489 100.995 114.377 107.744C106.301 114.528 97.8822 120.808 89.0315 126.332C80.1624 131.855 70.8433 136.603 61.0225 140.218C51.2014 143.869 40.8614 146.261 30.0026 147.411C40.7582 149.485 52.108 148.661 62.8713 145.987C73.6534 143.259 83.9042 138.645 93.2517 132.822C102.618 126.981 111.098 119.931 118.635 112.102C126.117 104.237 132.783 95.6286 138.048 86.2548Z" fill="#FFA8C0"/>
<path opacity="0.2" d="M126.982 83.9094C117.469 87.9572 108.512 93.0137 99.6838 98.1251C90.8915 103.273 82.2626 108.547 73.5093 113.427C64.7561 118.306 55.8603 122.772 46.5515 126.409C37.2604 130.119 27.5755 132.893 17.491 135.359C27.8566 136.103 38.3872 134.842 48.5106 132.126C58.6524 129.392 68.3509 125.166 77.3804 120.093C86.4464 115.019 94.934 109.206 103.113 103.103C111.293 96.964 119.236 90.6616 126.982 83.9094Z" fill="#FFA8C0"/>
<path d="M68.6518 8.5319C66.7079 3.15626 57.8091 0.0970699 53.6527 4.429C39.0037 19.6794 12.2734 57.3176 3.09731 89.8918C-4.03542 115.211 3.86307 149.042 21.7943 148.676C29.9365 148.503 94.6877 80.7158 68.6518 8.5319Z" fill="url(#paint6_radial_1_143)"/>
<path opacity="0.2" d="M47.1328 18.9335C41.2309 27.9967 35.6402 37.0449 30.2848 46.3641C25.0025 55.684 20.0825 65.3836 16.4557 75.7047C12.8108 85.9899 10.6052 96.9158 10.3572 107.825C10.1272 118.752 11.7274 129.606 15.1263 139.816C14.9704 129.064 15.0865 118.566 16.4996 108.278C17.8395 97.9883 20.4206 87.9976 23.8597 78.1942C27.2805 68.3907 31.5594 58.7746 35.7849 48.9966C40.0103 39.2366 44.2188 29.3152 47.1328 18.9335Z" fill="#FFA8C0"/>
<path opacity="0.2" d="M68.2585 37.0338C61.934 44.337 55.8653 51.6786 49.9771 59.2727C44.1436 66.8853 38.6177 74.8771 34.1279 83.5595C29.6384 92.2241 26.3313 101.599 24.778 111.241C23.2248 120.865 23.2982 130.648 25.0579 140.089C26.2442 130.569 27.6477 121.302 30.1641 112.367C32.6255 103.433 36.126 94.9019 40.3739 86.6471C44.6218 78.3923 49.5807 70.3952 54.5227 62.2545C59.4647 54.1138 64.4079 45.8478 68.2585 37.0338Z" fill="#FFA8C0"/>
<defs>
<radialGradient id="paint0_radial_1_143" cx="0" cy="0" r="1" gradientUnits="userSpaceOnUse" gradientTransform="translate(139.243 9.78502) rotate(-133.773) scale(46.8962 80.7645)">
<stop stop-color="#FFDDE7"/>
<stop offset="0.1298" stop-color="#FDD7E2"/>
<stop offset="0.3053" stop-color="#F6C6D4"/>
<stop offset="0.5071" stop-color="#EBA9BD"/>
<stop offset="0.7284" stop-color="#DB829C"/>
<stop offset="0.9631" stop-color="#C75073"/>
<stop offset="1" stop-color="#C4476C"/>
</radialGradient>
<radialGradient id="paint1_radial_1_143" cx="0" cy="0" r="1" gradientUnits="userSpaceOnUse" gradientTransform="translate(89.0445 -4.31911) rotate(-144.025) scale(47.447 81.1996)">
<stop stop-color="#FFDDE7"/>
<stop offset="0.3328" stop-color="#E7A0B5"/>
<stop offset="0.6377" stop-color="#D4708E"/>
<stop offset="0.8691" stop-color="#C85275"/>
<stop offset="1" stop-color="#C4476C"/>
</radialGradient>
<radialGradient id="paint2_radial_1_143" cx="0" cy="0" r="1" gradientUnits="userSpaceOnUse" gradientTransform="translate(136.344 17.809) rotate(-136.426) scale(37.0676 70.0163)">
<stop stop-color="#FFDDE7"/>
<stop offset="0.2179" stop-color="#EDB0C2"/>
<stop offset="0.4667" stop-color="#DB839D"/>
<stop offset="0.6891" stop-color="#CF6282"/>
<stop offset="0.8744" stop-color="#C74E72"/>
<stop offset="1" stop-color="#C4476C"/>
</radialGradient>
<radialGradient id="paint3_radial_1_143" cx="0" cy="0" r="1" gradientUnits="userSpaceOnUse" gradientTransform="translate(139.195 27.2081) rotate(-133.868) scale(60.3271 92.2614)">
<stop stop-color="#FFDDE7"/>
<stop offset="0.1884" stop-color="#F2BCCC"/>
<stop offset="0.5725" stop-color="#D97D98"/>
<stop offset="0.8537" stop-color="#CA5678"/>
<stop offset="1" stop-color="#C4476C"/>
</radialGradient>
<radialGradient id="paint4_radial_1_143" cx="0" cy="0" r="1" gradientUnits="userSpaceOnUse" gradientTransform="translate(127.827 26.4029) rotate(-132.028) scale(51.4916 107.369)">
<stop stop-color="#FFDDE7"/>
<stop offset="0.2122" stop-color="#F4C2D1"/>
<stop offset="0.6653" stop-color="#D97D99"/>
<stop offset="1" stop-color="#C4476C"/>
</radialGradient>
<radialGradient id="paint5_radial_1_143" cx="0" cy="0" r="1" gradientUnits="userSpaceOnUse" gradientTransform="translate(110.924 91.6049) rotate(-131.722) scale(54.6591 119.21)">
<stop stop-color="#FFDDE7"/>
<stop offset="0.1469" stop-color="#F9CEDB"/>
<stop offset="0.4298" stop-color="#EAA7BA"/>
<stop offset="0.8166" stop-color="#D16787"/>
<stop offset="1" stop-color="#C4476C"/>
</radialGradient>
<radialGradient id="paint6_radial_1_143" cx="0" cy="0" r="1" gradientUnits="userSpaceOnUse" gradientTransform="translate(70.6606 32.1154) rotate(-156.392) scale(70.6047 124.64)">
<stop stop-color="#FFDDE7"/>
<stop offset="0.1327" stop-color="#FDD7E2"/>
<stop offset="0.3052" stop-color="#F6C7D5"/>
<stop offset="0.4997" stop-color="#ECACBF"/>
<stop offset="0.7103" stop-color="#DD87A0"/>
<stop offset="0.9316" stop-color="#CA5779"/>
<stop offset="1" stop-color="#C4476C"/>
</radialGradient>
</defs>
</svg>
