<svg width="157" height="167" viewBox="0 0 157 167" fill="none" xmlns="http://www.w3.org/2000/svg">
<path d="M98.2759 44.7154V62.4301H58.0703V44.7154C58.0703 40.5944 61.8315 37.2747 66.5005 37.2747H89.8133C94.4823 37.246 98.2759 40.5944 98.2759 44.7154Z" fill="white"/>
<path d="M78.1731 62.4299H58.0703V44.7153C58.0703 40.5943 61.8315 37.2745 66.5005 37.2745H78.1407V57.7652L78.1731 62.4299Z" fill="#8AF3FF"/>
<path d="M91.3049 162.537C87.7058 165.342 83.2638 166.773 78.7893 166.973C73.5042 167.23 68.1218 165.656 63.9715 162.251C-32.8787 83.6368 1.62036 39.6792 34.6279 39.994C66.8897 40.2802 77.5896 60.0554 78.7893 62.5452C78.8865 62.7169 78.9189 62.8027 78.9189 62.8027C78.9189 62.8027 89.3595 40.5378 123.794 40.8526C156.801 41.2246 190.165 85.8404 91.3049 162.537Z" fill="#8AF3FF"/>
<path opacity="0.5" d="M78.2052 62.5445V166.944C72.9202 167.201 67.5378 165.627 63.3875 162.222C-33.4627 83.6074 1.03636 39.6499 34.0439 39.9647C66.3057 40.2795 76.9731 60.0547 78.2052 62.5445Z" fill="#00AB91"/>
<path d="M100.611 64.1762C119.06 46.9766 148.404 57.9087 133.748 92.1075" stroke="white" stroke-width="2" stroke-miterlimit="10"/>
<path d="M82.4789 36.0747C80.8021 37.4357 77.9959 39.1556 77.9959 39.1556C77.9959 39.1556 76.3642 34.6781 75.6037 31.7839C74.7963 28.7112 74.0514 23.9 74.0514 23.9C74.0514 23.9 73.2208 19.5219 73.3235 16.552L73.3253 16.4996C73.413 13.962 73.4709 12.2878 74.2503 9.92637C74.9043 7.94472 75.3378 6.77017 76.5365 5.24186C77.723 3.72913 78.6244 3.13007 80.1849 2.32378C81.9286 1.4228 83.0392 1.07946 84.9179 1.16821C86.5851 1.24697 87.5498 1.57222 89.0613 2.45013C90.9162 3.52741 91.9078 4.50175 93.165 6.52677C94.1471 8.10865 94.6457 9.14759 95.0421 11.0958C95.5119 13.405 95.3337 14.8667 94.9551 17.2093C94.5473 19.7324 93.9559 21.0658 92.9263 23.2951C91.51 26.3618 90.2666 27.7375 88.25 30.2168C86.1785 32.7635 84.9115 34.1003 82.4789 36.0747Z" stroke="white" stroke-width="2"/>
</svg>
