<svg width="157" height="129" viewBox="0 0 157 129" fill="none" xmlns="http://www.w3.org/2000/svg">
<path d="M94.9913 6.2017V18.7077H61.98V6.2017C61.98 3.29386 65.0631 0.929749 68.9248 0.929749H88.0465C91.877 0.953389 94.9913 3.31751 94.9913 6.2017Z" fill="white"/>
<path d="M78.4856 18.7308H61.98V6.22476C61.98 3.31692 65.0631 0.952881 68.9248 0.952881H78.4856V15.4211V18.7308Z" fill="#8AF3FF"/>
<path d="M151.296 59.7711C163.286 51.5914 155.033 36.5321 138.963 37.1704H138.091C128.312 37.1704 120.527 30.9765 120.994 23.5296C121.835 11.3073 101.997 5.06607 91.2214 14.1678C87.7957 17.0047 83.1554 18.4232 78.5151 18.4232C73.8749 18.4232 69.2034 17.0047 65.8089 14.1678C62.2586 11.1654 57.7429 9.8415 53.2583 9.8415C44.1958 9.8415 35.507 15.3262 36.0364 23.5296C36.5347 31.1893 28.2196 37.5487 18.067 37.1704C17.7244 37.1468 17.413 37.1468 17.1016 37.1468C1.65476 37.1468 -6.00636 51.7569 5.73447 59.7711C13.271 64.9249 13.271 73.8848 5.73447 79.0621C1.77934 81.7572 0.0353371 85.1851 0.0353371 88.5894C0.0353371 95.4689 7.26046 102.065 18.067 101.663H18.9079C28.6867 101.663 36.4724 107.833 36.0052 115.304C35.1644 127.526 55.0024 133.767 65.7778 124.665C69.2035 121.828 73.8437 120.363 78.484 120.363C83.1243 120.363 87.7957 121.805 91.1902 124.665C101.966 133.767 121.804 127.502 120.963 115.304C120.464 107.62 128.78 101.285 138.932 101.663C139.275 101.686 139.586 101.686 139.898 101.686C155.344 101.686 163.005 87.0764 151.265 79.0621C143.759 73.8848 143.759 64.9249 151.296 59.7711ZM78.484 91.1189C62.6946 91.1189 49.8949 81.4262 49.8949 69.4166C49.8949 57.4307 62.6946 47.7143 78.484 47.7143C94.2734 47.7143 107.073 57.4307 107.073 69.4166C107.104 81.4262 94.2734 91.1189 78.484 91.1189Z" fill="#FFB017"/>
<path d="M49.8958 69.4175C49.8958 81.4271 62.6955 91.1198 78.4849 91.1198V120.364C73.8446 120.364 69.1732 121.806 65.7786 124.666C55.0032 133.768 35.1653 127.503 36.0061 115.305C36.4733 107.834 28.6876 101.664 18.9087 101.664H18.0367C7.2302 102.066 0.00507238 95.4698 0.00507238 88.5903C0.00507238 85.186 1.74906 81.7581 5.70419 79.063C13.2407 73.8857 13.2407 64.9258 5.70419 59.7721C-6.03663 51.7578 1.6245 37.1477 17.0713 37.1477C17.3827 37.1477 17.6942 37.1477 18.0367 37.1714C28.1581 37.5496 36.5044 31.2138 36.0061 23.5305C35.4767 15.3271 44.1655 9.84241 53.2281 9.84241C57.7126 9.84241 62.2283 11.1663 65.7786 14.1687C69.2043 17.0056 73.8446 18.4241 78.4849 18.4241V47.7152C62.6955 47.6915 49.8958 57.4316 49.8958 69.4175Z" fill="#FC8035"/>
<path d="M105.89 32.8207C104.083 39.1565 109.627 45.3031 117.973 46.3433C118.222 46.367 118.471 46.4143 118.752 46.4143C132.61 47.5963 136.846 61.3789 125.105 67.1" stroke="white" stroke-width="2" stroke-miterlimit="10"/>
</svg>
