<svg width="139" height="139" viewBox="0 0 139 139" fill="none" xmlns="http://www.w3.org/2000/svg">
<g filter="url(#filter0_d_1_619)">
<path d="M38.0807 11.0209L41.8322 23.0047L66.6951 15.7483L62.9436 3.76447C62.0609 0.998981 59.0204 -0.584652 56.1271 0.242631L41.7096 4.44995C38.8408 5.30087 37.2225 8.23182 38.0807 11.0209Z" fill="white"/>
<path d="M54.2891 19.3653L66.7206 15.7252L62.9691 3.74147C62.0864 0.975976 59.0459 -0.607729 56.1526 0.219554L48.9438 2.32325L53.2838 16.1743L54.2891 19.3653Z" fill="#8AF3FF"/>
<path d="M17.5579 93.1118C11.1338 103.37 21.2849 115.661 32.9317 112.257C33.1524 112.187 33.4221 112.116 33.6672 112.021C41.1948 109.421 49.3598 113.652 51.2969 121.121C54.3373 132.987 71.1578 134.618 76.5521 123.532C78.2685 120.058 81.3335 117.647 84.8398 116.63C88.3461 115.614 92.2937 115.968 95.702 117.93C106.54 124.265 119.633 113.912 115.318 102.425C112.719 95.3809 116.74 87.7699 124.096 85.619L124.758 85.4299C133.021 83.4444 136.478 75.5261 134.418 68.9551C133.389 65.6933 131.059 62.8096 127.259 61.0841C120.025 57.775 117.328 49.1949 121.448 42.6239C127.872 32.3656 117.721 20.0745 106.074 23.4782C105.853 23.5491 105.583 23.62 105.338 23.7145C97.8106 26.3146 89.6211 22.06 87.7085 14.6144C85.6489 6.64886 77.4348 3.31608 70.6183 5.30156C67.2346 6.2943 64.2433 8.53982 62.4533 12.2035C60.737 15.6781 57.672 18.0654 54.1657 19.0818C50.6594 20.0982 46.7363 19.7672 43.3035 17.8054C32.4413 11.4708 19.3724 21.8236 23.6878 33.311C26.2869 40.3311 22.2656 47.9658 14.9097 50.1167L14.2477 50.3058C1.93889 53.2367 0.246988 69.4515 11.7467 74.6516C18.98 77.9371 21.6772 86.4935 17.5579 93.1118ZM47.9622 74.1552C44.3578 62.6914 51.1008 50.5658 62.9928 47.0912C74.8848 43.6166 87.4633 50.1167 91.0677 61.5805C94.6721 73.0679 87.9292 85.1699 76.0372 88.6444C64.1451 92.119 51.5666 85.6662 47.9622 74.1552Z" fill="#FF5287"/>
<path d="M91.068 61.5805C94.6724 73.0679 87.9295 85.1699 76.0375 88.6444L84.8401 116.63C88.3464 115.614 92.294 115.968 95.7023 117.93C106.54 124.265 119.633 113.912 115.318 102.425C112.719 95.3809 116.74 87.7699 124.096 85.619L124.758 85.4299C133.021 83.4444 136.478 75.5261 134.419 68.9551C133.389 65.6933 131.06 62.8096 127.259 61.0841C120.026 57.775 117.329 49.1949 121.448 42.6239C127.872 32.3656 117.721 20.0745 106.074 23.4782C105.853 23.5491 105.584 23.62 105.338 23.7145C97.8109 26.3146 89.6214 22.06 87.7088 14.6144C85.6492 6.64886 77.4351 3.31608 70.6187 5.30156C67.235 6.2943 64.2436 8.53982 62.4537 12.2035C60.7373 15.6781 57.6723 18.0654 54.166 19.0818L62.9686 47.0912C74.8851 43.6166 87.4636 50.1167 91.068 61.5805Z" fill="#FF2E60"/>
<path d="M37.8608 38.8652C41.1219 44.5144 38.7925 51.629 32.8342 54.4654C32.638 54.56 32.4664 54.6309 32.2703 54.7018C22.1682 58.8855 23.1245 72.9966 33.7169 75.8802" stroke="white" stroke-width="2" stroke-miterlimit="10"/>
</g>
<defs>
<filter id="filter0_d_1_619" x="0" y="0" width="139" height="139" filterUnits="userSpaceOnUse" color-interpolation-filters="sRGB">
<feFlood flood-opacity="0" result="BackgroundImageFix"/>
<feColorMatrix in="SourceAlpha" type="matrix" values="0 0 0 0 0 0 0 0 0 0 0 0 0 0 0 0 0 0 127 0" result="hardAlpha"/>
<feOffset dy="4"/>
<feGaussianBlur stdDeviation="2"/>
<feComposite in2="hardAlpha" operator="out"/>
<feColorMatrix type="matrix" values="0 0 0 0 0 0 0 0 0 0 0 0 0 0 0 0 0 0 0.25 0"/>
<feBlend mode="normal" in2="BackgroundImageFix" result="effect1_dropShadow_1_619"/>
<feBlend mode="normal" in="SourceGraphic" in2="effect1_dropShadow_1_619" result="shape"/>
</filter>
</defs>
</svg>
