<svg width="157" height="167" viewBox="0 0 157 167" fill="none" xmlns="http://www.w3.org/2000/svg">
<path d="M98.2632 46.8651V64.2685H58.0627V46.8651C58.0627 42.8165 61.8235 39.555 66.4919 39.555H89.8017C94.5026 39.5269 98.2632 42.8165 98.2632 46.8651Z" fill="white"/>
<path d="M78.1965 64.2684H58.0962V46.8649C58.0962 42.8163 61.8569 39.5549 66.5254 39.5549H78.164V59.6855L78.1965 64.2684Z" fill="#8AF3FF"/>
<path d="M91.3251 162.615C87.7265 165.371 83.2849 166.777 78.811 166.973C73.5266 167.226 68.1449 165.68 63.9952 162.334C-32.8427 85.1013 1.65192 41.916 34.6553 42.2253C66.9129 42.5064 77.6114 61.9341 78.811 64.3802C78.9082 64.5489 78.9407 64.6333 78.9407 64.6333C78.9407 64.6333 89.3798 42.7594 123.81 43.0687C156.781 43.4342 190.173 87.2942 91.3251 162.615Z" fill="#FF5287"/>
<path d="M78.1953 64.3808V166.946C72.9109 167.199 67.5292 165.653 63.3795 162.307C-33.4584 85.0738 1.0362 41.8885 34.0395 42.1978C66.2972 42.5071 76.9634 61.9629 78.1953 64.3808Z" fill="#FF2E60"/>
<path d="M100.598 65.9826C119.045 49.0852 148.384 59.8253 133.731 93.4232" stroke="white" stroke-width="2" stroke-miterlimit="10"/>
<path d="M83.4791 35.4522C81.8023 36.789 78.9961 38.4784 78.9961 38.4784C78.9961 38.4784 77.3644 34.0804 76.6039 31.2375C75.7965 28.2194 75.0516 23.4936 75.0516 23.4936C75.0516 23.4936 74.221 19.1932 74.3237 16.276L74.3255 16.2245C74.4133 13.7319 74.4711 12.0875 75.2505 9.76798C75.9045 7.8215 76.3381 6.6678 77.5367 5.1666C78.7232 3.68073 79.6246 3.09229 81.1851 2.30032C82.9288 1.41533 84.0394 1.07808 85.9181 1.16526C87.5853 1.24262 88.55 1.5621 90.0616 2.42442C91.9165 3.48258 92.908 4.43964 94.1652 6.42872C95.1474 7.98251 95.6459 9.00301 96.0423 10.9167C96.5122 13.1849 96.3339 14.6206 95.9553 16.9217C95.5476 19.4 94.9562 20.7097 93.9266 22.8995C92.5103 25.9117 91.2669 27.263 89.2502 29.6983C87.1787 32.1997 85.9117 33.5128 83.4791 35.4522Z" stroke="white" stroke-width="2"/>
</svg>
