<svg width="157" height="167" viewBox="0 0 157 167" fill="none" xmlns="http://www.w3.org/2000/svg">
<path d="M94.9913 44.2017V56.7077H61.98V44.2017C61.98 41.2939 65.0631 38.9297 68.9248 38.9297H88.0465C91.877 38.9534 94.9913 41.3175 94.9913 44.2017Z" fill="white"/>
<path d="M78.4856 56.7308H61.98V44.2248C61.98 41.3169 65.0631 38.9529 68.9248 38.9529H78.4856V53.4211V56.7308Z" fill="#8AF3FF"/>
<path d="M151.296 97.7711C163.286 89.5914 155.033 74.5321 138.963 75.1704H138.091C128.312 75.1704 120.527 68.9765 120.994 61.5296C121.835 49.3073 101.997 43.0661 91.2214 52.1678C87.7957 55.0047 83.1554 56.4232 78.5151 56.4232C73.8749 56.4232 69.2034 55.0047 65.8089 52.1678C62.2586 49.1654 57.7429 47.8415 53.2583 47.8415C44.1958 47.8415 35.507 53.3262 36.0364 61.5296C36.5347 69.1893 28.2196 75.5487 18.067 75.1704C17.7244 75.1468 17.413 75.1468 17.1016 75.1468C1.65476 75.1468 -6.00636 89.7569 5.73447 97.7711C13.271 102.925 13.271 111.885 5.73447 117.062C1.77934 119.757 0.0353371 123.185 0.0353371 126.589C0.0353371 133.469 7.26046 140.065 18.067 139.663H18.9079C28.6867 139.663 36.4724 145.833 36.0052 153.304C35.1644 165.526 55.0024 171.767 65.7778 162.665C69.2035 159.828 73.8437 158.363 78.484 158.363C83.1243 158.363 87.7957 159.805 91.1902 162.665C101.966 171.767 121.804 165.502 120.963 153.304C120.464 145.62 128.78 139.285 138.932 139.663C139.275 139.686 139.586 139.686 139.898 139.686C155.344 139.686 163.005 125.076 151.265 117.062C143.759 111.885 143.759 102.925 151.296 97.7711ZM78.484 129.119C62.6946 129.119 49.8949 119.426 49.8949 107.417C49.8949 95.4307 62.6946 85.7143 78.484 85.7143C94.2734 85.7143 107.073 95.4307 107.073 107.417C107.104 119.426 94.2734 129.119 78.484 129.119Z" fill="#FFB017"/>
<path d="M49.8958 107.418C49.8958 119.427 62.6955 129.12 78.4849 129.12V158.364C73.8446 158.364 69.1732 159.806 65.7786 162.666C55.0032 171.768 35.1653 165.503 36.0061 153.305C36.4733 145.834 28.6876 139.664 18.9087 139.664H18.0367C7.2302 140.066 0.00507238 133.47 0.00507238 126.59C0.00507238 123.186 1.74906 119.758 5.70419 117.063C13.2407 111.886 13.2407 102.926 5.70419 97.7721C-6.03663 89.7578 1.6245 75.1477 17.0713 75.1477C17.3827 75.1477 17.6942 75.1477 18.0367 75.1714C28.1581 75.5496 36.5044 69.2138 36.0061 61.5305C35.4767 53.3271 44.1655 47.8424 53.2281 47.8424C57.7126 47.8424 62.2283 49.1663 65.7786 52.1687C69.2043 55.0056 73.8446 56.4241 78.4849 56.4241V85.7152C62.6955 85.6915 49.8958 95.4316 49.8958 107.418Z" fill="#FC8035"/>
<path d="M105.89 70.8207C104.083 77.1565 109.627 83.3031 117.973 84.3433C118.222 84.367 118.471 84.4143 118.752 84.4143C132.61 85.5963 136.846 99.3789 125.105 105.1" stroke="white" stroke-width="2" stroke-miterlimit="10"/>
<path d="M82.4789 36.0752C80.8021 37.4361 77.9959 39.1561 77.9959 39.1561C77.9959 39.1561 76.3642 34.6786 75.6037 31.7844C74.7963 28.7116 74.0514 23.9005 74.0514 23.9005C74.0514 23.9005 73.2208 19.5224 73.3235 16.5525L73.3253 16.5001C73.413 13.9625 73.4709 12.2883 74.2503 9.92686C74.9043 7.94521 75.3378 6.77066 76.5365 5.24234C77.723 3.72962 78.6244 3.13056 80.1849 2.32427C81.9286 1.42329 83.0392 1.07995 84.9179 1.1687C86.5851 1.24746 87.5498 1.57271 89.0613 2.45062C90.9162 3.5279 91.9078 4.50224 93.165 6.52726C94.1471 8.10914 94.6457 9.14808 95.0421 11.0963C95.5119 13.4055 95.3337 14.8672 94.9551 17.2098C94.5473 19.7329 93.9559 21.0663 92.9263 23.2956C91.51 26.3623 90.2666 27.738 88.25 30.2173C86.1785 32.764 84.9115 34.1008 82.4789 36.0752Z" stroke="white" stroke-width="2"/>
</svg>
