<svg width="157" height="125" viewBox="0 0 157 125" fill="none" xmlns="http://www.w3.org/2000/svg">
<path d="M156.966 77.3028C155.632 104.438 119.488 125.812 76.1157 124.977C32.7429 124.141 -1.29559 101.492 0.0378784 74.3561C1.37135 47.1766 37.5153 25.8464 80.8179 26.6821C124.191 27.4737 158.229 50.1233 156.966 77.3028Z" fill="#00AB91"/>
<path d="M80.8179 26.637L76.1157 124.976C32.7429 124.14 -1.29559 101.491 0.0378784 74.355C1.37135 47.1755 37.5153 25.8014 80.8179 26.637Z" fill="#008974"/>
<path d="M115.767 10.7172L114.715 32.0914L46.4272 30.816L47.4799 9.44176C47.6905 4.47205 54.2876 0.557936 62.2885 0.733855L101.871 1.48144C109.802 1.61337 116.048 5.79148 115.767 10.7172Z" fill="white"/>
<path d="M80.6045 31.4756L46.4958 30.816L47.5485 9.44176C47.7591 4.47205 54.3563 0.557936 62.3571 0.733855L82.1486 1.08563L80.9555 25.8022L80.6045 31.4756Z" fill="#8AF3FF"/>
<path d="M103.557 46.2087C121.944 52.5858 134.858 64.5043 136.191 78.6218" stroke="white" stroke-width="2" stroke-miterlimit="10"/>
</svg>
